<?xml version="1.0" standalone="no"?><!DOCTYPE svg PUBLIC "-//W3C//DTD SVG 1.1//EN" "http://www.w3.org/Graphics/SVG/1.1/DTD/svg11.dtd"><svg t="1714960532334" class="icon" viewBox="0 0 1179 1024" version="1.1" xmlns="http://www.w3.org/2000/svg" p-id="27167" xmlns:xlink="http://www.w3.org/1999/xlink" width="230.2734375" height="200"><path d="M553.153 896.202h-55.165v-692.24L1179.306 0v802.496h-55.164V74.141l-570.99 170.9z" p-id="27168"></path><path d="M425.429 1024a127.908 127.908 0 0 1-127.761-127.798 127.908 127.908 0 0 1 127.76-127.76 127.908 127.908 0 0 1 127.725 127.76A127.908 127.908 0 0 1 425.429 1024z m0-200.394a72.67 72.67 0 0 0-72.597 72.596 72.67 72.67 0 0 0 72.597 72.634 72.67 72.67 0 0 0 72.56-72.634 72.67 72.67 0 0 0-72.56-72.596zM1051.582 931.25a127.871 127.871 0 0 1-127.76-127.724 127.871 127.871 0 0 1 127.76-127.761 127.908 127.908 0 0 1 127.761 127.76 127.908 127.908 0 0 1-127.76 127.725z m0-200.32a72.67 72.67 0 0 0-72.596 72.596 72.67 72.67 0 0 0 72.596 72.56 72.707 72.707 0 0 0 72.597-72.56 72.707 72.707 0 0 0-72.597-72.597zM0 177.777h384.717v55.164H0z" p-id="27169"></path><path d="M164.758 16.917h55.164V390.05h-55.164z" p-id="27170"></path></svg>