<?xml version="1.0" standalone="no"?><!DOCTYPE svg PUBLIC "-//W3C//DTD SVG 1.1//EN" "http://www.w3.org/Graphics/SVG/1.1/DTD/svg11.dtd"><svg t="1714965766821" class="icon" viewBox="0 0 1024 1024" version="1.1" xmlns="http://www.w3.org/2000/svg" p-id="38642" xmlns:xlink="http://www.w3.org/1999/xlink" width="200" height="200"><path d="M680 176a206.24 206.24 0 0 0-164.48 86.08A205.6 205.6 0 0 0 351.04 176c-116.64 0-211.36 103.68-211.36 230.88 0 75.84 33.92 129.44 61.28 172.32 80 124.64 279.04 279.36 288 285.76a43.52 43.52 0 0 0 54.08 0c8.48-6.4 208-161.6 288-285.76 27.52-42.88 61.28-96 61.28-172.32C891.2 279.68 796.64 176 680 176z m0 0" fill="#d81e06" p-id="38643"></path></svg>