<?xml version="1.0" standalone="no"?><!DOCTYPE svg PUBLIC "-//W3C//DTD SVG 1.1//EN" "http://www.w3.org/Graphics/SVG/1.1/DTD/svg11.dtd"><svg t="1714887369198" class="icon" viewBox="0 0 1024 1024" version="1.1" xmlns="http://www.w3.org/2000/svg" p-id="66371" xmlns:xlink="http://www.w3.org/1999/xlink" width="200" height="200"><path d="M716.845363 115.519021v817.140358c0 57.75951 47.013555 91.340621 104.773065 91.340621H896.840116c57.75951 0 104.773065-33.133362 104.773065-91.340621V115.519021h-284.767818z" fill="#FF9A40" p-id="66372"></path><path d="M743.262503 415.062527h226.56056v48.3568h-226.56056zM749.530977 871.317884h226.56056v15.223437h-226.56056z" fill="#33ACA5" p-id="66373"></path><path d="M761.620177 1004.74683c17.014429 12.0892 38.058592 19.25317 60.445999 19.25317h21.044163V207.755138h-81.490162v796.991692z" fill="#E5E4AA" p-id="66374"></path><path d="M716.845363 101.638828v153.129865c0 57.75951 47.013555 104.773065 104.773065 104.773065H896.840116c57.75951 0 104.773065-47.013555 104.773065-104.773065V101.638828h-284.767818z" fill="#F5882F" p-id="66375"></path><path d="M741.919259 101.638828v145.518146c0 43.879318 35.819851 79.699169 79.699169 79.699169H896.840116c43.879318 0 79.699169-35.819851 79.699169-79.699169V101.638828h-234.620026z" fill="#FFFFFF" p-id="66376"></path><path d="M741.919259 101.638828v145.518146c0 35.819851 23.730652 65.818977 55.968517 76.117184-12.984696-15.671185-21.044163-36.267599-21.044162-59.102754V101.638828h-34.924355z" fill="#D0DFDD" p-id="66377"></path><path d="M787.141821 101.638828h4.925229v159.398339h-4.925229zM802.365258 101.638828h4.925229v159.398339h-4.925229zM817.140946 101.638828h4.92523v159.398339h-4.92523zM832.364383 101.638828h4.92523v159.398339h-4.92523zM847.140072 101.638828h4.925229v159.398339h-4.925229zM862.363509 101.638828h4.925229v159.398339h-4.925229zM877.139197 101.638828h4.92523v159.398339h-4.92523z" fill="#CCE2FF" p-id="66378"></path><path d="M893.25813 101.638828h4.92523v159.398339h-4.92523z" fill="#CCE2FF" p-id="66379"></path><path d="M893.25813 101.638828h4.92523v159.398339h-4.92523zM908.481567 101.638828h4.92523v159.398339h-4.92523zM923.257256 101.638828h4.92523v159.398339h-4.92523zM938.480693 101.638828h4.925229v159.398339h-4.925229z" fill="#CCE2FF" p-id="66380"></path><path d="M529.686639 5.372978v927.286401c0 57.75951-47.013555 91.340621-104.773065 91.340621h-23.282903c-57.75951 0-104.773065-33.133362-104.773065-91.340621V5.372978h232.829033z" fill="#FFD059" p-id="66381"></path><path d="M529.686639 5.372978v927.286401c0 57.75951-47.013555 91.340621-104.773065 91.340621h-23.282903c-57.75951 0-104.773065-33.133362-104.773065-91.340621V5.372978h232.829033z" fill="#33ACA5" p-id="66382"></path><path d="M308.499057 268.201137h214.47136v17.909926H308.499057zM308.499057 325.512899h214.47136v17.909926H308.499057z" fill="#FFD059" p-id="66383"></path><path d="M331.781961 997.135111c16.118933 14.327941 36.715348 24.1784 59.102755 26.417141V112.832532H331.781961v884.302579z" fill="#A9B187" p-id="66384"></path><path d="M529.686639 115.519021V1.343244H296.857606v114.175777c0 57.75951 47.013555 104.773065 104.773065 104.773065h23.282903c58.207258 0 104.773065-47.013555 104.773065-104.773065z" fill="#33ACA5" p-id="66385"></path><path d="M529.686639 115.519021V1.343244H296.857606v114.175777c0 57.75951 47.013555 104.773065 104.773065 104.773065h23.282903c58.207258 0 104.773065-47.013555 104.773065-104.773065z" fill="#D0DFDD" p-id="66386"></path><path d="M505.060492 103.429821V0H321.931502v103.429821c0 43.879318 35.819851 79.699169 79.699169 79.699169h23.282903c44.327066 0 80.146917-35.819851 80.146918-79.699169z" fill="#FFFFFF" p-id="66387"></path><path d="M357.751353 0h4.92523v139.69742h-4.92523zM372.527042 0H377.452271v139.69742h-4.925229zM387.750479 0h4.925229v139.69742h-4.925229zM402.526167 0h4.92523v139.69742h-4.92523zM417.301856 0H422.227085v139.69742h-4.925229zM432.525293 0h4.925229v139.69742h-4.925229zM447.300981 0h4.92523v139.69742h-4.92523z" fill="#CCE2FF" p-id="66388"></path><path d="M463.867663 0h4.925229v139.69742h-4.925229z" fill="#CCE2FF" p-id="66389"></path><path d="M314.767531 103.429821V0h29.999126v105.220813c0 36.267599 21.939659 66.714473 52.834281 78.355925h-3.134237C350.587383 183.12899 314.767531 147.309139 314.767531 103.429821z" fill="#D0DFDD" p-id="66390"></path><path d="M314.319783 818.035855h187.158724v48.356799H314.319783z" fill="#FFD059" p-id="66391"></path><path d="M530.134388 112.384784v831.916047c0 51.491036 41.640577 79.699169 93.131613 79.699169s93.131613-28.208133 93.131614-79.699169V112.384784h-186.263227z" fill="#EA2D68" p-id="66392"></path><path d="M555.208284 994.000875c15.223437 16.118933 35.819851 26.864889 59.102754 29.103629V112.384784h-59.102754V994.000875z" fill="#BBC0A4" p-id="66393"></path><path d="M530.134388 35.372103v161.189331c0 51.491036 41.640577 93.131613 93.131613 93.131614s93.131613-41.640577 93.131614-93.131614v-161.189331h-186.263227z" fill="#B82B48" p-id="66394"></path><path d="M554.760535 35.372103v161.189331c0 37.610844 30.446874 68.057718 68.057718 68.057718 37.610844 0 68.057718-30.446874 68.057717-68.057718v-161.189331h-136.115435z" fill="#FFFFFF" p-id="66395"></path><path d="M579.834431 35.372103h-25.073896v161.189331c0 27.760385 16.566681 51.491036 40.297333 62.236992-9.850459-12.0892-15.671185-27.760385-15.671185-44.774814V35.372103z" fill="#D0DFDD" p-id="66396"></path><path d="M586.998402 35.372103h4.925229v153.129865h-4.925229zM601.77409 35.372103h4.92523v153.129865h-4.92523zM616.997527 35.372103h4.92523v153.129865h-4.92523zM631.773216 35.372103h4.925229v153.129865h-4.925229zM646.996653 35.372103h4.925229v153.129865h-4.925229z" fill="#CCE2FF" p-id="66397"></path><path d="M663.115586 35.372103h4.925229v153.129865h-4.925229z" fill="#CCE2FF" p-id="66398"></path><path d="M547.148817 384.167906h154.025361v16.118933h-154.025361zM547.148817 424.01749h154.025361v16.118933h-154.025361z" fill="#842F82" p-id="66399"></path><path d="M17.910514 56.416266v876.243113c0 57.75951 47.013555 91.340621 104.773065 91.340621h74.773939c57.75951 0 104.773065-33.133362 104.773065-91.340621V56.416266H17.910514z" fill="#842F82" p-id="66400"></path><path d="M62.23758 1004.74683c17.014429 12.0892 38.058592 19.25317 60.445999 19.25317h21.044162V148.652383H62.23758v856.094447z" fill="#A9B187" p-id="66401"></path><path d="M17.910514 42.536073v153.129865c0 57.75951 47.013555 104.773065 104.773065 104.773065h74.773939c57.75951 0 104.773065-47.013555 104.773065-104.773065V42.536073H17.910514z" fill="#542A43" p-id="66402"></path><path d="M42.536661 42.536073V188.05422c0 43.879318 35.819851 79.699169 79.69917 79.699169h74.773939c43.879318 0 79.699169-35.819851 79.699169-79.699169V42.536073H42.536661z" fill="#FFFFFF" p-id="66403"></path><path d="M42.536661 42.536073V188.05422c0 35.819851 23.730652 65.818977 55.968518 76.117184-12.984696-15.671185-21.044163-36.267599-21.044163-59.102755V42.536073H42.536661z" fill="#D0DFDD" p-id="66404"></path><path d="M88.206972 42.536073h4.925229v159.398339h-4.925229zM102.98266 42.536073h4.92523v159.398339h-4.92523zM118.206097 42.536073h4.92523v159.398339h-4.92523zM132.981786 42.536073h4.925229v159.398339h-4.925229zM147.757475 42.536073h4.925229v159.398339h-4.925229zM162.980911 42.536073h4.92523v159.398339h-4.92523zM177.7566 42.536073h4.92523v159.398339h-4.92523z" fill="#CCE2FF" p-id="66405"></path><path d="M194.323281 42.536073h4.92523v159.398339h-4.92523z" fill="#CCE2FF" p-id="66406"></path><path d="M194.323281 42.536073h4.92523v159.398339h-4.92523zM209.09897 42.536073h4.92523v159.398339h-4.92523zM223.874659 42.536073h4.925229v159.398339h-4.925229zM239.098096 42.536073h4.925229v159.398339h-4.925229z" fill="#CCE2FF" p-id="66407"></path><path d="M45.670898 883.854832h208.202886v16.118933H45.670898zM45.670898 404.316572h208.202886v29.551377H45.670898zM45.670898 467.896808h208.202886v8.059467H45.670898z" fill="#33ACA5" p-id="66408"></path></svg>