<?xml version="1.0" standalone="no"?><!DOCTYPE svg PUBLIC "-//W3C//DTD SVG 1.1//EN" "http://www.w3.org/Graphics/SVG/1.1/DTD/svg11.dtd"><svg t="1714891085489" class="icon" viewBox="0 0 1118 1024" version="1.1" xmlns="http://www.w3.org/2000/svg" p-id="81464" xmlns:xlink="http://www.w3.org/1999/xlink" width="218.359375" height="200"><path d="M229.419389 558.545455 1070.545455 558.545455C1096.251802 558.545455 1117.090909 537.706344 1117.090909 512 1117.090909 486.293656 1096.251802 465.454545 1070.545455 465.454545L229.419389 465.454545 544.912606 149.961328C563.089738 131.784198 563.089738 102.313246 544.912606 84.136115 526.735475 65.958984 497.264525 65.958984 479.087394 84.136115L84.136115 479.087394C75.04755 488.175959 70.503267 500.087979 70.503267 512 70.503267 523.912021 75.04755 535.824041 84.136115 544.912606L479.087394 939.863887C497.264525 958.041014 526.735475 958.041014 544.912606 939.863887 563.089738 921.686754 563.089738 892.215802 544.912606 874.038672L229.419389 558.545455Z" fill="#2c2c2c" p-id="81465"></path></svg>