<?xml version="1.0" standalone="no"?><!DOCTYPE svg PUBLIC "-//W3C//DTD SVG 1.1//EN" "http://www.w3.org/Graphics/SVG/1.1/DTD/svg11.dtd"><svg t="1714709067985" class="icon" viewBox="0 0 1024 1024" version="1.1" xmlns="http://www.w3.org/2000/svg" p-id="34631" xmlns:xlink="http://www.w3.org/1999/xlink" width="200" height="200"><path d="M838.095 932.437h-653.34c-51.52 0-93.75-42.136-93.75-93.75v-653.34c0-51.52 42.135-93.75 93.75-93.75h653.34c51.52 0 93.75 42.136 93.75 93.75V838.78c0 51.52-42.23 93.656-93.75 93.656zM711.78 450.267h-93.562c-17.83 0-32.189-14.451-32.189-32.188V244c0-17.83-14.452-32.188-32.188-32.188h-84.929c-17.736 0-32.188 14.452-32.188 32.188v174.08c0 17.83-14.452 32.189-32.282 32.189h-93.469c-15.296 0-23.085 18.3-12.575 29.373l190.222 199.512 1.126 1.126c12.762 12.106 33.033 11.636 45.139-1.126l189.47-199.418c10.604-11.168 2.722-29.467-12.575-29.467z m98.254 289.04H212.814v69.632h597.221v-69.632z" fill="#dbdbdb" p-id="34632"></path></svg>