<?xml version="1.0" standalone="no"?><!DOCTYPE svg PUBLIC "-//W3C//DTD SVG 1.1//EN" "http://www.w3.org/Graphics/SVG/1.1/DTD/svg11.dtd"><svg t="1714887160583" class="icon" viewBox="0 0 1098 1024" version="1.1" xmlns="http://www.w3.org/2000/svg" p-id="55767" xmlns:xlink="http://www.w3.org/1999/xlink" width="214.453125" height="200"><path d="M544.120107 518.863271m-441.445576 0a441.445576 441.445576 0 1 0 882.891153 0 441.445576 441.445576 0 1 0-882.891153 0Z" fill="#919191" p-id="55768"></path><path d="M540.825737 591.33941h-4.941555c-15.373727 0-28.002145-10.432172-28.002144-23.609651V264.647721c0-13.17748 12.628418-23.609651 28.002144-23.609651h4.941555c15.373727 0 28.002145 10.432172 28.002145 23.609651v303.082038c0 13.17748-12.628418 23.609651-28.002145 23.609651z" fill="#ffffff" p-id="55769"></path><path d="M774.726005 555.650402v16.47185c0 12.079357-9.88311 21.962466-21.962466 21.962466H535.884182c-12.079357 0-21.962466-9.88311-21.962466-21.962466v-16.47185c0-12.079357 9.88311-21.962466 21.962466-21.962466H752.214477c12.628418-0.549062 22.511528 9.88311 22.511528 21.962466z" fill="#ffffff" p-id="55770"></path></svg>