<?xml version="1.0" standalone="no"?><!DOCTYPE svg PUBLIC "-//W3C//DTD SVG 1.1//EN" "http://www.w3.org/Graphics/SVG/1.1/DTD/svg11.dtd"><svg t="1714886595378" class="icon" viewBox="0 0 1024 1024" version="1.1" xmlns="http://www.w3.org/2000/svg" p-id="12683" xmlns:xlink="http://www.w3.org/1999/xlink" width="200" height="200"><path d="M512 454.4m-426.666667 0a426.666667 426.666667 0 1 0 853.333334 0 426.666667 426.666667 0 1 0-853.333334 0Z" fill="#FFE500" p-id="12684"></path><path d="M512 27.733333c-234.666667 0-426.666667 192-426.666667 426.666667s192 426.666667 426.666667 426.666667 426.666667-192 426.666667-426.666667-192-426.666667-426.666667-426.666667z m0 789.333334c-215.466667 0-388.266667-174.933333-388.266667-388.266667C123.733333 213.333333 296.533333 38.4 512 38.4S902.4 213.333333 902.4 428.8c0 215.466667-174.933333 388.266667-390.4 388.266667z" fill="#EBCB00" p-id="12685"></path><path d="M384 113.066667a128 32 0 1 0 256 0 128 32 0 1 0-256 0Z" fill="#FFF48C" p-id="12686"></path><path d="M170.666667 964.266667a341.333333 32 0 1 0 682.666666 0 341.333333 32 0 1 0-682.666666 0Z" fill="#45413C" p-id="12687"></path><path d="M714.666667 497.066667a53.333333 32 0 1 0 106.666666 0 53.333333 32 0 1 0-106.666666 0Z" fill="#FFAA54" p-id="12688"></path><path d="M202.666667 497.066667a53.333333 32 0 1 0 106.666666 0 53.333333 32 0 1 0-106.666666 0Z" fill="#FFAA54" p-id="12689"></path><path d="M398.933333 401.066667m-21.333333 0a21.333333 21.333333 0 1 0 42.666667 0 21.333333 21.333333 0 1 0-42.666667 0Z" fill="#45413C" p-id="12690"></path><path d="M597.333333 403.2m-21.333333 0a21.333333 21.333333 0 1 0 42.666667 0 21.333333 21.333333 0 1 0-42.666667 0Z" fill="#45413C" p-id="12691"></path></svg>