<?xml version="1.0" standalone="no"?><!DOCTYPE svg PUBLIC "-//W3C//DTD SVG 1.1//EN" "http://www.w3.org/Graphics/SVG/1.1/DTD/svg11.dtd"><svg t="1714710123572" class="icon" viewBox="0 0 1059 1024" version="1.1" xmlns="http://www.w3.org/2000/svg" p-id="47321" xmlns:xlink="http://www.w3.org/1999/xlink" width="206.8359375" height="200"><path d="M360.41269 494.344828H63.240828C28.248276 494.344828 0 466.025931 0 431.104V133.826207C0 98.904276 28.283586 70.62069 63.205517 70.62069h297.207173C395.369931 70.62069 423.724138 98.939586 423.724138 133.861517v297.242483c0 34.957241-28.318897 63.240828-63.205517 63.240828h-0.105931m0 529.655172H63.240828A63.205517 63.205517 0 0 1 0 960.794483v-297.207173C0 628.630069 28.283586 600.275862 63.205517 600.275862h297.207173c34.957241 0 63.311448 28.354207 63.311448 63.311448v297.101242A63.205517 63.205517 0 0 1 360.553931 1024h-0.141241M1040.242759 328.704l-217.158621 217.12331a65.324138 65.324138 0 0 1-92.407172 0l-217.158621-217.15862a65.324138 65.324138 0 0 1 0-92.407173l217.158621-217.12331a65.288828 65.288828 0 0 1 92.371862 0l217.15862 217.158621a65.324138 65.324138 0 0 1 0 92.407172M925.554759 1024H628.171034c-34.957241 0-63.240828-28.318897-63.240827-63.205517v-297.207173c0-34.957241 28.318897-63.311448 63.240827-63.311448h297.242483c34.957241 0 63.240828 28.354207 63.240828 63.311448v297.101242c0.03531 34.957241-28.248276 63.276138-63.205517 63.311448h-0.035311" fill="#dbdbdb" p-id="47322"></path></svg>