<?xml version="1.0" standalone="no"?><!DOCTYPE svg PUBLIC "-//W3C//DTD SVG 1.1//EN" "http://www.w3.org/Graphics/SVG/1.1/DTD/svg11.dtd"><svg t="1714705380836" class="icon" viewBox="0 0 1024 1024" version="1.1" xmlns="http://www.w3.org/2000/svg" p-id="22904" xmlns:xlink="http://www.w3.org/1999/xlink" width="200" height="200"><path d="M875 363l-14.1-19.5c-7.2-9.9-15-31-16.1-43.4l-2.1-24.2c-2.7-29.9-24.1-61.6-50.7-74.7l-21.4-10.6c-10.9-5.4-27.5-20.4-34.1-30.7l-12.9-20.3c-16-25.2-49.4-43.1-78.9-42.2l-23.8 0.6c-12.1 0.3-33.6-5-44.2-11.1L556 75c-25.7-14.8-63.4-14.8-89.1 0l-20.7 12c-10.5 6.1-32 11.4-44.2 11.1l-23.8-0.8c-29.5-0.9-62.9 16.9-78.9 42.2l-12.9 20.4c-6.5 10.3-23.2 25.3-34.1 30.7l-21.4 10.6c-26.4 13.1-48 44.8-50.7 74.7l-2.1 24.2c-1.1 12.2-9 33.4-16.1 43.4l-14 19.6c-17.5 24.2-22.1 62.4-10.8 90.1l9.1 22.4c4.6 11.3 7.3 33.8 5.5 46.1l-3.6 24c-4.5 29.7 9 65.7 31.6 84.9l18.3 15.5c9.3 7.8 21.9 26.6 25.9 38.1l7.7 23c1.3 4.1 3.1 8.2 5.3 12.1l-84.8 148H275l59.1 91.6 74.5-130.1c18.5 7.1 39.4 8.7 57.3 3.7l23-6.5c11.7-3.4 33.8-3.4 45.5 0l23 6.5c16.9 4.8 36.8 3.5 54.6-2.7l74 129.1 59.1-91.6h122.8l-83.1-145.1c2.8-4.8 5.2-9.9 6.9-15l7.7-23c3.9-11.7 16.6-30.3 25.9-38.1l18.3-15.5c22.6-19.2 36.1-55.2 31.6-84.9l-3.6-24c-1.8-12.1 0.9-34.6 5.5-46.1l9.1-22.4c10.9-27.8 6.3-66-11.2-90.2zM511.5 769.9c-171.3 0-310.3-141.5-310.3-316.1 0-174.6 139-316.1 310.3-316.1s310.3 141.5 310.3 316.1c0 174.5-139 316.1-310.3 316.1z m0 0" p-id="22905" fill="#dbdbdb"></path><path d="M511.5 170.8c-153.3 0-277.6 126.6-277.6 282.8 0 156.2 124.3 282.8 277.6 282.8s277.6-126.6 277.6-282.8c-0.1-156.2-124.3-282.8-277.6-282.8z m99.6 421.7l-95.5-51.7-96.5 49.6L437.8 482l-76.2-78.1 107-15.4 49.4-97.9 47.4 98.9 106.7 17.6-77.8 76.5 16.8 108.9z m0 0" p-id="22906" fill="#dbdbdb"></path></svg>