<?xml version="1.0" standalone="no"?><!DOCTYPE svg PUBLIC "-//W3C//DTD SVG 1.1//EN" "http://www.w3.org/Graphics/SVG/1.1/DTD/svg11.dtd"><svg t="1714886517940" class="icon" viewBox="0 0 1024 1024" version="1.1" xmlns="http://www.w3.org/2000/svg" p-id="8866" xmlns:xlink="http://www.w3.org/1999/xlink" width="200" height="200"><path d="M354.234921 968.728834c-65.854158-82.193609 76.092041-246.274133 153.176797-380.068767 127.915014-221.980853 301.579681-168.854436 367.433839-86.660827 119.295339 148.915384-6.819874 286.471037-128.968261 384.334214-122.144351 97.859142-325.796288 164.597059-391.642375 82.39538z" fill="#FFE8B8" p-id="8867"></path><path d="M368.407346 957.377173c-42.743259-53.352401 27.348099-160.79165 95.135228-264.695864 20.612969-31.597405 41.924067-64.268235 59.607315-94.949598 52.698661-91.454917 118.391403-142.684682 189.975869-148.16883 67.060751-5.133065 121.393761 31.161579 147.547374 63.800125 85.793211 107.100273 45.705264 221.113236-126.155567 358.806094-92.524306 74.122751-223.227801 123.294448-304.041292 114.36808-28.179397-3.115351-49.06274-12.925478-62.068927-29.160007z m388.825646-56.867259c81.172645-65.034966 132.010974-121.986969 159.9886-179.217417 39.365605-80.543118 29.878313-158.140374-28.199574-230.640882-41.722296-52.069134-111.849973-82.415557-178.652457-77.298634-58.642848 4.483361-144.181826 36.968561-218.679873 166.247549-17.178819 29.817781-38.211473 62.05682-58.554068 93.234541-74.853164 114.735304-152.252683 233.376903-93.061018 307.249459 19.244959 24.022906 48.324257 38.340607 86.430809 42.549558 102.867109 11.359731 244.244312-52.835866 330.727581-122.124174z" fill="#6E6E96" p-id="8868"></path><path d="M416.622646 1004.293065c-94.441134-17.812382-215.015703-54.583206-226.766871-231.835369C168.181488 445.479027 153.734654 229.720805 174.004612 168.148236 194.08894 107.168876 338.557281 74.308381 338.557281 375.379598c0 68.767738 271.854714 192.179213 74.29224 389.729582" fill="#FFE8B8" p-id="8869"></path><path d="M222.110955 846.265684s57.831726 170.000498 356.473616 21.073008c298.641889-148.931526 263.715255-417.76774 134.545223-417.76774 0 0 127.204778-10.104713 177.526572 84.170968 50.321794 94.271646-10.762488 266.338284-137.20457 347.046855s-398.17977 245.721279-531.340841-34.523091z" fill="#DF7000" opacity=".19" p-id="8870"></path><path d="M637.098285 463.787767s-71.996081 61.286053-120.735987 229.438325c-15.169176 52.331437-48.396894 105.635413-107.265726 125.679386 0 0-77.415661-10.342803-43.251723-75.119502 34.163938-64.776699 95.736507-197.970053-10.532468-304.234993 0 0 113.161487 82.480124 126.902121 156.07827L637.098285 463.787767z" fill="#DF7000" opacity=".19" p-id="8871"></path><path d="M419.988194 986.4484c-104.0051-19.616218-201.674577-59.268339-212.013345-215.193262l-0.383366-5.774698c-20.544367-309.896699-35.386673-533.798416-16.33945-591.654356 5.314659-16.137679 21.867987-45.329969 44.627805-41.681941 39.276826 6.303339 84.518015 83.856205 84.518015 243.23142 0 27.154399 24.543476 53.44118 55.616276 86.713288 67.589393 72.387517 151.703865 162.474424 23.994658 290.17556a18.159428 18.159428 0 1 0 25.681467 25.677432c152.523057-152.514986 42.5657-270.284933-23.131076-340.638594-21.488657-23.014049-45.842468-49.095024-45.842468-61.931722 0-223.042171-78.194499-259.66772-111.813654-265.063088-37.799859-6.065249-68.670887-3.547142-88.145866 52.145808-22.441018 64.163314-7.760129 268.14212 14.596145 605.415167l0.383366 5.774698c5.55275 83.751284 35.628799 147.297177 89.384742 188.874197 46.589022 36.032341 103.048703 50.354077 152.135656 59.607315a18.147322 18.147322 0 1 0 6.731095-35.677224z" fill="#6E6E96" p-id="8872"></path><path d="M277.541602 214.692869s188.979119 25.850955 188.979118-103.327148c0-129.186174-220.237548-100.19162-282.798796 34.680473" fill="#FFE8B8" p-id="8873"></path><path d="M429.495663 64.64353c47.299258 122.769842-169.944002 69.151103-188.418193 134.032723-10.488079 36.827321 17.324095 53.977892 43.340502 61.931722L330.405716 370.97291l-7.396941-103.577344-0.746554-39.095232s57.525034 0 126.099071-58.521784c68.574037-58.521785-18.865628-105.13502-18.865629-105.13502z" fill="#DF7000" opacity=".19" p-id="8874"></path><path d="M275.07999 232.68281c4.640743 0.633562 114.31562 14.955298 173.2127-36.435885 24.143969-21.064937 36.383424-49.623665 36.383423-84.889274 0-50.136164-29.930773-86.672934-80.066937-97.734044-78.634361-17.348307-192.776457 28.651543-237.359872 124.771415a18.163464 18.163464 0 0 0 32.945239 15.290239c36.690116-79.10247 133.05615-118.60528 196.589937-104.586202 23.530584 5.193597 51.576812 20.209426 51.576812 62.270698 0 24.624185-7.816625 43.425247-23.889737 57.472573-46.399357 40.560092-143.50791 27.997803-144.484484 27.860599h0.016142a18.159428 18.159428 0 0 0-4.923223 35.979881z" fill="#6E6E96" p-id="8875"></path><path d="M704.150965 499.953277c13.970654 13.345162-0.084744 83.065261-31.375457 115.836977-31.298784 32.771715-92.32657 102.12459-106.297223 88.779427-13.966618-13.345162 24.410307-136.655752 55.717162-169.427467 31.290713-32.771715 67.984865-48.526028 81.955518-35.188937z" fill="#FFFFFF" opacity=".67" p-id="8876"></path><path d="M318.973347 501.99924s33.970237 98.855893 1.686809 158.180728c-32.283428 59.32887 116.684416-9.41869 33.28825-153.939493-62.722666-108.690232-43.171015-20.415233-34.975059-4.241235z" fill="#FFFFFF" opacity=".46" p-id="8877"></path><path d="M548.318857 308.423768m-58.513714 0a58.513714 58.513714 0 1 0 117.027428 0 58.513714 58.513714 0 1 0-117.027428 0Z" fill="#FFB5E2" opacity=".54" p-id="8878"></path><path d="M806.586283 320.530054m-27.743571 0a27.743571 27.743571 0 1 0 55.487143 0 27.743571 27.743571 0 1 0-55.487143 0Z" fill="#7FD9FF" opacity=".64" p-id="8879"></path></svg>