<?xml version="1.0" standalone="no"?><!DOCTYPE svg PUBLIC "-//W3C//DTD SVG 1.1//EN" "http://www.w3.org/Graphics/SVG/1.1/DTD/svg11.dtd"><svg t="1714886699830" class="icon" viewBox="0 0 1024 1024" version="1.1" xmlns="http://www.w3.org/2000/svg" p-id="25631" xmlns:xlink="http://www.w3.org/1999/xlink" width="200" height="200"><path d="M0 512c0 282.756129 229.243871 512 512 512 282.756129 0 512-229.243871 512-512C1024 229.243871 794.756129 0 512 0 229.243871 0 0 229.243871 0 512z" fill="#FEC43C" p-id="25632"></path><path d="M1013.76 408.576C965.632 175.104 759.808 0 512 0 229.376 0 0 229.376 0 512c0 123.904 44.032 236.544 116.736 324.608 87.04 48.128 186.368 74.752 292.864 74.752 301.056 0 550.912-217.088 604.16-502.784z" fill="#FFD73A" p-id="25633"></path><path d="M188.779355 293.210839a24.79071 24.79071 0 1 1 22.164645-44.329291l136.324129 68.162065a24.79071 24.79071 0 0 1 0 44.312774l-136.324129 68.178581a24.79071 24.79071 0 1 1-22.164645-44.345807l136.291097-68.145548v44.312774l-136.258065-68.145548h-0.033032z m614.99458-44.329291a24.79071 24.79071 0 0 1 22.197678 44.329291l-136.324129 68.145548v-44.312774l136.324129 68.145548a24.79071 24.79071 0 0 1-22.197678 44.345807l-136.291096-68.178581a24.79071 24.79071 0 0 1 0-44.312774l136.291096-68.162065zM512 778.24c-134.144 0-245.76-97.28-266.24-225.28A35.806968 35.806968 0 0 1 281.6 512h460.8a35.806968 35.806968 0 0 1 35.84 40.96C757.76 680.96 646.144 778.24 512 778.24z" fill="#873A18" p-id="25634"></path><path d="M742.4 512h-460.8a35.806968 35.806968 0 0 0-35.84 40.96c1.024 7.168 2.048 14.336 4.096 21.504H773.12c2.048-7.168 3.072-14.336 4.096-21.504 4.096-21.504-13.312-40.96-34.816-40.96z" fill="#FFFFFF" p-id="25635"></path><path d="M587.776 635.904c-30.72 0-58.368 15.36-75.776 38.912-16.384-23.552-44.032-38.912-75.776-38.912-48.128 0-88.064 36.864-92.16 83.968 46.08 36.864 104.448 58.368 167.936 58.368 63.488 0 121.856-21.504 167.936-58.368-4.096-47.104-44.032-83.968-92.16-83.968z" fill="#F44444" p-id="25636"></path></svg>