<?xml version="1.0" standalone="no"?><!DOCTYPE svg PUBLIC "-//W3C//DTD SVG 1.1//EN" "http://www.w3.org/Graphics/SVG/1.1/DTD/svg11.dtd"><svg t="1714886750481" class="icon" viewBox="0 0 1024 1024" version="1.1" xmlns="http://www.w3.org/2000/svg" p-id="26977" xmlns:xlink="http://www.w3.org/1999/xlink" width="200" height="200"><path d="M512 531.808m-492.192 0a492.192 492.192 0 1 0 984.384 0 492.192 492.192 0 1 0-984.384 0Z" fill="#FFD93B" p-id="26978"></path><path d="M1004.192 531.808C1004.192 803.744 783.776 1024 512 1024c-154.72 0-292.864-71.36-383.136-183.2a489.664 489.664 0 0 0 308.992 109.056c271.776 0 492.192-220.256 492.192-492.192a489.6 489.6 0 0 0-109.056-308.992c111.68 90.304 183.2 228.416 183.2 383.136z" fill="#F4C534" p-id="26979"></path><path d="M365.408 39.712c23.264 59.392-54.72 194.752-54.72 194.752S161.504 188.032 138.24 128.672A62.624 62.624 0 0 1 173.664 47.68a62.56 62.56 0 0 1 71.296 18.816A62.336 62.336 0 0 1 284.416 4.32a62.528 62.528 0 0 1 80.992 35.392zM996.576 194.4c-34.24 71.776-224 116.16-224 116.16S687.68 135.136 721.952 63.36A78.08 78.08 0 0 1 825.888 26.592a78.016 78.016 0 0 1 43.648 80.992 77.856 77.856 0 0 1 127.04 86.816z" fill="#E24B4B" p-id="26980"></path><path d="M537.12 461.44a202.304 202.304 0 0 1-202.432 202.432 202.496 202.496 0 0 1-202.432-202.432c0-111.584 90.848-202.112 202.432-202.112a202.24 202.24 0 0 1 202.432 202.112z" fill="#F4C534" p-id="26981"></path><path d="M500.864 461.472c-11.488 92.928-95.04 168.096-186.912 168.096-91.584 0-156.896-75.168-145.408-168.096 11.456-92.672 95.296-167.808 186.88-167.808 91.872 0 156.896 75.168 145.44 167.808z" fill="#FFFFFF" p-id="26982"></path><path d="M347.232 392.32m-69.344 0a69.344 69.344 0 1 0 138.688 0 69.344 69.344 0 1 0-138.688 0Z" fill="#3E4347" p-id="26983"></path><path d="M360.730791 378.680328a21.472 15.136 44.999 1 0 21.405163-21.40591 21.472 15.136 44.999 1 0-21.405163 21.40591Z" fill="#FFFFFF" p-id="26984"></path><path d="M891.744 489.184a164.032 164.032 0 0 1-164.16 164.16 164.224 164.224 0 0 1-164.16-164.16 164.128 164.128 0 0 1 164.16-163.872 163.936 163.936 0 0 1 164.16 163.872z" fill="#F4C534" p-id="26985"></path><path d="M862.304 489.216c7.648 73.6-46.432 133.088-120.928 133.088-74.272 0-140.928-59.52-148.576-133.088-7.616-73.376 46.688-132.896 120.96-132.896 74.528 0 140.928 59.52 148.544 132.896z" fill="#FFFFFF" p-id="26986"></path><path d="M703.616 448.864m-69.344 0a69.344 69.344 0 1 0 138.688 0 69.344 69.344 0 1 0-138.688 0Z" fill="#3E4347" p-id="26987"></path><path d="M717.114791 435.224328a21.472 15.136 44.999 1 0 21.405163-21.40591 21.472 15.136 44.999 1 0-21.405163 21.40591Z" fill="#FFFFFF" p-id="26988"></path><path d="M196.224 699.456c24.416 37.056 48.928 62.4 79.488 88.928 63.392 53.408 147.296 84.576 235.744 85.632 92.928-1.28 173.92-32.704 236.832-85.664 30.208-26.208 55.52-52.576 79.488-88.896-17.76 39.072-38.304 72.384-67.744 101.632-69.92 68.544-148.192 101.44-247.488 103.68-102.208-2.336-179.968-36.512-248.544-103.712-29.632-29.44-50.208-63.04-67.776-101.6z" fill="#3E4347" p-id="26989"></path></svg>