<?xml version="1.0" standalone="no"?><!DOCTYPE svg PUBLIC "-//W3C//DTD SVG 1.1//EN" "http://www.w3.org/Graphics/SVG/1.1/DTD/svg11.dtd"><svg t="1714960702910" class="icon" viewBox="0 0 1024 1024" version="1.1" xmlns="http://www.w3.org/2000/svg" p-id="37571" xmlns:xlink="http://www.w3.org/1999/xlink" width="200" height="200"><path d="M42.666667 106.666667a21.333333 21.333333 0 0 1 21.333333-21.333334h896a21.333333 21.333333 0 0 1 0 42.666667H64a21.333333 21.333333 0 0 1-21.333333-21.333333z m21.333333 405.333333h597.333333a21.333333 21.333333 0 0 0 0-42.666667H64a21.333333 21.333333 0 0 0 0 42.666667z m384 341.333333H64a21.333333 21.333333 0 0 0 0 42.666667h384a21.333333 21.333333 0 0 0 0-42.666667z m532.853333-324.513333c-4.5-20.773333-14.666667-50.513333-37.466666-74.266667-11.04-11.493333-23.64-20.093333-37.493334-25.606666-10.306667-7.126667-19.44-16.58-27.153333-28.133334-19.64-29.393333-24.373333-64.04-25.446667-82.08A21.333333 21.333333 0 0 0 810.666667 320v479.586667c-1.413333-1.02-2.846667-2-4.326667-3.006667-27.64-18.433333-64-28.58-102.34-28.58s-74.666667 10.146667-102.34 28.58c-14.253333 9.5-25.56 20.746667-33.613333 33.44-8.88 14-13.38 29.013333-13.38 44.666667s4.5 30.666667 13.38 44.666666c8.053333 12.666667 19.333333 23.94 33.613333 33.44C629.333333 971.186667 665.646667 981.333333 704 981.333333s74.666667-10.146667 102.34-28.58c14.253333-9.5 25.56-20.746667 33.613333-33.44 8.88-14 13.38-29.013333 13.38-44.666666V438a140.893333 140.893333 0 0 0 30.966667 27.82A21.18 21.18 0 0 0 888.666667 468c8.713333 3.2 16.773333 8.606667 23.953333 16.086667 16.733333 17.42 23.806667 41.146667 26.533333 53.733333a21.333333 21.333333 0 1 0 41.706667-9.026667z" fill="#2c2c2c" p-id="37572"></path></svg>