<?xml version="1.0" standalone="no"?><!DOCTYPE svg PUBLIC "-//W3C//DTD SVG 1.1//EN" "http://www.w3.org/Graphics/SVG/1.1/DTD/svg11.dtd"><svg t="1714886835380" class="icon" viewBox="0 0 1024 1024" version="1.1" xmlns="http://www.w3.org/2000/svg" p-id="31528" xmlns:xlink="http://www.w3.org/1999/xlink" width="200" height="200"><path d="M951.1 0L308.4 147.2v127.5h-0.5v481.6c-24.3-17.5-53.9-28.1-86.1-28.1C140.2 728.2 74 794.4 74 876s66.2 147.8 147.8 147.8S369.6 957.7 369.6 876c0-7.5-1.1-14.7-2.2-22h2.2V346.1l519.7-119V648c-24.3-17.5-53.9-28.1-86.1-28.1-81.6 0-147.8 66.2-147.8 147.8s66.2 147.8 147.8 147.8c81.6 0 147.8-66.2 147.8-147.8 0-7.5-1.1-14.7-2.2-22h2.2V0z" fill="#000000" p-id="31529"></path></svg>