<?xml version="1.0" standalone="no"?><!DOCTYPE svg PUBLIC "-//W3C//DTD SVG 1.1//EN" "http://www.w3.org/Graphics/SVG/1.1/DTD/svg11.dtd"><svg t="1714702382668" class="icon" viewBox="0 0 1024 1024" version="1.1" xmlns="http://www.w3.org/2000/svg" p-id="4873" xmlns:xlink="http://www.w3.org/1999/xlink" width="200" height="200"><path d="M510.653 931.287z m0 92.713a92.708 92.708 0 1 0 0-185.426 92.713 92.713 0 0 0 0 185.426M512 512z m0 92.713a92.718 92.718 0 1 0 0-185.431 92.718 92.718 0 0 0 0 185.431m1.347-512z m0 92.713c51.205 0 92.713-41.508 92.713-92.713C606.06 41.508 564.552 0 513.347 0s-92.719 41.508-92.719 92.713c0 51.205 41.513 92.713 92.719 92.713" p-id="4874" fill="#ffffff"></path></svg>