<?xml version="1.0" standalone="no"?><!DOCTYPE svg PUBLIC "-//W3C//DTD SVG 1.1//EN" "http://www.w3.org/Graphics/SVG/1.1/DTD/svg11.dtd"><svg t="1714701074693" class="icon" viewBox="0 0 1024 1024" version="1.1" xmlns="http://www.w3.org/2000/svg" p-id="2360" xmlns:xlink="http://www.w3.org/1999/xlink" width="200" height="200"><path d="M985.57696 772.224H39.5904c-19.95264 0.17536-36.02176 16.42624-35.97312 36.38016v24.04992C3.50592 852.64768 19.5968 868.96 39.5904 869.12h945.78304c20.01024-0.128 36.1408-16.42752 36.06016-36.43776v-24.07808c0.36992-19.75168-15.34208-36.06272-35.09376-36.43136a43.02848 43.02848 0 0 0-0.704-0.0064l-0.05888 0.0576z m0-315.05792H39.5904c-19.97568 0.17536-36.05376 16.46208-35.97312 36.43776v24.04992c-0.09728 19.9936 16.00768 36.29312 36.00128 36.43776h945.7536c19.99872-0.128 36.12416-16.4096 36.06016-36.40832v-24.07808c0.36992-19.75168-15.34208-36.06272-35.09376-36.43136a43.02848 43.02848 0 0 0-0.704-0.0064h-0.0576z m0-315.08608H39.5904c-19.9872 0.17536-36.06912 16.48-35.97312 36.4672v23.61344c-0.09728 19.9936 16.00768 36.29312 36.00128 36.43776h945.7536c20.01024-0.128 36.1408-16.42752 36.06016-36.43776v-23.46752c0.32128-19.88096-15.53408-36.25728-35.41504-36.57856a25.3952 25.3952 0 0 0-0.4416-0.00384V142.08z" p-id="2361" fill="#ffffff"></path></svg>