<?xml version="1.0" standalone="no"?><!DOCTYPE svg PUBLIC "-//W3C//DTD SVG 1.1//EN" "http://www.w3.org/Graphics/SVG/1.1/DTD/svg11.dtd"><svg t="1714887282656" class="icon" viewBox="0 0 1024 1024" version="1.1" xmlns="http://www.w3.org/2000/svg" p-id="60056" xmlns:xlink="http://www.w3.org/1999/xlink" width="200" height="200"><path d="M940.188 510.84c0 237.173-192.278 429.537-429.538 429.537-237.173 0-429.507-192.364-429.507-429.537 0-237.26 192.334-429.509 429.507-429.509 237.259 0 429.538 192.249 429.538 429.509z" fill="#FFEA00" p-id="60057"></path><path d="M510.649 958.093c-60.357 0-118.923-11.83-174.071-35.162-53.254-22.532-101.081-54.782-142.15-95.855-41.069-41.072-73.315-88.901-95.845-142.16-23.329-55.15-35.157-113.718-35.157-174.075 0-60.378 11.829-118.956 35.157-174.107 22.528-53.258 54.775-101.083 95.846-142.148 41.067-41.062 88.895-73.302 142.152-95.825 55.144-23.32 113.709-35.145 174.068-35.145 60.38 0 118.959 11.824 174.109 35.144 53.263 22.523 101.093 54.763 142.16 95.826 41.065 41.063 73.311 88.889 95.835 142.148 23.323 55.149 35.149 113.727 35.149 174.106 0 60.36-11.826 118.926-35.149 174.074-22.525 53.26-54.77 101.09-95.834 142.161-41.069 41.074-88.898 73.323-142.158 95.855-55.155 23.333-113.734 35.163-174.112 35.163z m0-859.045c-227.062 0-411.79 184.729-411.79 411.792 0 227.078 184.729 411.82 411.79 411.82 227.079 0 411.821-184.742 411.821-411.82 0.001-227.062-184.741-411.792-411.821-411.792z" fill="#FDD000" p-id="60058"></path><path d="M492.887 145.117c11.506 23.27-42.128 73.099-119.783 111.248-77.596 38.207-149.801 50.232-161.307 26.904-11.448-23.299 42.216-73.128 119.813-111.276 77.654-38.122 149.859-50.234 161.277-26.876z" fill="#FFFFFF" p-id="60059"></path><path d="M309.118 552.97H130.97c-8.154 0-14.763-6.611-14.763-14.765s6.609-14.764 14.763-14.764h178.148c8.154 0 14.763 6.61 14.763 14.764s-6.609 14.765-14.763 14.765zM794.337 550.922H511.775c-8.153 0-14.764-6.611-14.764-14.765s6.611-14.764 14.764-14.764h282.562c8.153 0 14.764 6.61 14.764 14.764s-6.611 14.765-14.764 14.765zM834.505 438.866H681.501a14.764 14.764 0 0 1-11.423-24.117L806.359 248.32H666.506c-8.153 0-14.764-6.611-14.764-14.765s6.61-14.764 14.764-14.764H837.53a14.765 14.765 0 0 1 11.423 24.117l-136.28 166.429h121.832c8.153 0 14.764 6.61 14.764 14.764s-6.611 14.765-14.764 14.765z" fill="#501E0E" p-id="60060"></path><path d="M583.432 788.873c0 31.749-64.506 50.491-150.292 50.491-85.815 0-131.981-21.165-131.981-52.94 0-31.75 49.973-68.312 135.788-68.312 85.815 0 146.485 38.986 146.485 70.761z" fill="#F2A00B" p-id="60061"></path><path d="M433.14 852.354c-43.646 0-78.354-5.231-103.161-15.551-34.557-14.375-41.811-35.332-41.811-50.38 0-39.965 55.65-81.303 148.778-81.303 41.503 0 81.104 8.87 111.505 24.977 30.487 16.15 47.973 37.573 47.973 58.775 0 14.945-9.02 35.668-51.983 49.516-28.347 9.137-66.835 13.966-111.301 13.966z m3.806-121.25c-79.068 0-122.797 32.709-122.797 55.32 0 12.938 14.035 21.494 25.809 26.392 21.323 8.869 53.544 13.558 93.182 13.558 94.704 0 137.301-21.929 137.301-37.5-0.001-20.367-50.682-57.77-133.495-57.77z" fill="#9F2C20" p-id="60062"></path><path d="M584.815 798.533s-30.104 28.72-111.853 30.624v99.252s59.256 11.16 124.108-1.846l-12.255-128.03z" fill="#FFFFFF" p-id="60063"></path><path d="M530.398 945.855h-0.002c-34.591 0-58.824-4.489-59.838-4.681a12.99 12.99 0 0 1-10.586-12.766v-99.252c0-7.057 5.633-12.821 12.688-12.986 74.634-1.739 102.923-26.785 103.19-27.037a12.99 12.99 0 0 1 21.898 8.163l12.256 128.029a12.99 12.99 0 0 1-10.378 13.975c-21.686 4.349-44.98 6.555-69.228 6.555z m-44.444-28.663c9.718 1.207 25.463 2.681 44.443 2.681 18.275 0 35.916-1.337 52.604-3.982l-9.105-95.12c-16.818 8.417-45.097 18.306-87.941 20.853v75.568z" fill="#6BC8F2" p-id="60064"></path></svg>