<?xml version="1.0" standalone="no"?><!DOCTYPE svg PUBLIC "-//W3C//DTD SVG 1.1//EN" "http://www.w3.org/Graphics/SVG/1.1/DTD/svg11.dtd"><svg t="1714887483331" class="icon" viewBox="0 0 1024 1024" version="1.1" xmlns="http://www.w3.org/2000/svg" p-id="71810" xmlns:xlink="http://www.w3.org/1999/xlink" width="200" height="200"><path d="M990.527 539.088c0 64.64-5.813 128.872-29.064 185.025-24.124 58.129-68.593 105.33-112.538 149.217a466.66 466.66 0 0 1-154.332 99.982c-56.153 23.251-115.212 50.397-179.852 50.397s-126.256-20.81-182.466-44.12c-58.13-24.123-107.19-63.011-151.136-106.899A469.333 469.333 0 0 1 76.623 720.8c-23.31-56.502-43.422-117.072-43.422-181.712a484.214 484.214 0 0 1 36.505-184.21c24.182-58.13 65.744-107.074 109.631-151.136s94.227-81.671 152.473-105.795a476.193 476.193 0 0 1 182.699-35.865c64.64 0 124.454 17.438 180.607 40.98 58.129 24.124 117.071 50.631 160.959 94.518s67.778 103.76 91.902 161.948c23.31 56.21 42.55 114.979 42.55 179.56z" fill="#FFD635" p-id="71811"></path><path d="M617.223 961.628c-60.92 0-119.106-19.648-172.062-41.62-54.932-22.787-101.144-59.409-142.532-100.855a443.175 443.175 0 0 1-98.412-143.52c-21.973-52.955-40.69-110.096-40.69-171.074a457.126 457.126 0 0 1 34.18-173.747c22.786-54.932 62.197-100.97 103.41-142.358s88.88-77.137 143.753-99.924a440.56 440.56 0 0 1 87.775-25.925c-5.813 0-12.032-0.523-18.136-0.523a476.193 476.193 0 0 0-182.7 35.865c-58.245 24.124-108.584 62.082-152.472 105.97s-85.45 93.006-109.63 151.135A484.214 484.214 0 0 0 33.2 539.088c0 64.64 20.113 125.21 43.422 181.711a469.333 469.333 0 0 0 104.633 152.182c43.887 43.887 93.006 82.776 151.135 106.9C388.6 1003.13 450.276 1024 514.858 1024s123.698-27.088 179.85-50.398a486.307 486.307 0 0 0 126.373-74.696c-11.044 5.465-22.321 10.696-33.889 15.52-53.304 21.45-108.76 47.202-169.97 47.202z" fill="#F7B523" p-id="71812"></path><path d="M437.953 186.013s3.43-2.674 9.65-6.86a225.54 225.54 0 0 1 26.913-15.636 221.355 221.355 0 0 1 41.62-15.811 204.265 204.265 0 0 1 51.852-7.034h13.195c4.127 0 8.836 0.29 13.079 0.581s8.545 0.93 12.73 1.512 8.254 1.453 12.265 2.325a158.343 158.343 0 0 1 22.613 7.034 131.604 131.604 0 0 1 19.24 9.3 116.258 116.258 0 0 1 25.81 19.997 69.755 69.755 0 0 1 6.22 7.266 25.926 25.926 0 0 1 2.034 2.848s-4.883 0.872-12.789 1.453c-3.894 0.349-8.545 0.407-13.776 0.64s-10.928 0-17.032 0-12.614-0.582-19.415-1.047-13.835-1.279-21.1-2.209l-10.987-1.511-11.277-1.802-11.626-1.918-5.813-1.163a51.851 51.851 0 0 0-5.464-0.697 412.25 412.25 0 0 0-85.973 0l-30.169 2.557-8.66 0.175z" fill="#FFEF57" p-id="71813"></path><path d="M679.944 734.401a74.289 74.289 0 0 1-3.953 28.077 90.216 90.216 0 0 1-16.101 28.541 92.658 92.658 0 0 1-24.473 24.298 85.45 85.45 0 0 1-41.969 12.323 122.594 122.594 0 0 1-44.469-6.568 87.891 87.891 0 0 1-31.505-21.392 86.554 86.554 0 0 1-16.916-26.565c-4.185-8.835-3.836-18.31-4.708-28.425a84.17 84.17 0 0 1 0.697-29.645 78.707 78.707 0 0 1 14.881-26.74c7.266-9.591 13.08-18.775 23.95-24.879a97.54 97.54 0 0 1 41.794-14.997 108.585 108.585 0 0 1 45.399 9.358A102.133 102.133 0 0 1 654.6 679.18a91.32 91.32 0 0 1 17.845 26.914 84.52 84.52 0 0 1 7.499 28.308zM261.59 491.83l1.686 2.558c1.162 1.802 2.441 3.139 4.534 5.813a100.97 100.97 0 0 0 19.298 17.845 125.675 125.675 0 0 0 15.056 9.01 128.698 128.698 0 0 0 18.369 7.325 123.524 123.524 0 0 0 20.693 4.882 137.591 137.591 0 0 0 21.915 1.802h11.103c3.662 0 7.382-0.58 10.986-1.104a194.093 194.093 0 0 0 20.985-4.36 161.366 161.366 0 0 0 18.601-6.743 124.745 124.745 0 0 0 15.288-8.603 87.193 87.193 0 0 0 19.24-16.857 75.975 75.975 0 0 0 5.813-7.906l0.407-0.639a12.09 12.09 0 0 1 21.973 9.707l-0.988 3.43a74.114 74.114 0 0 1-3.546 9.359 91.67 91.67 0 0 1-21.682 29.064 110.445 110.445 0 0 1-19.183 14.3 129.86 129.86 0 0 1-23.774 11.277 144.102 144.102 0 0 1-26.914 7.092c-4.65 0.814-9.417 1.395-14.184 1.802-2.383 0-4.94 0.349-7.498 0.465a32.32 32.32 0 0 1-3.314 0h-3.662a168.225 168.225 0 0 1-28.715-3.023 159.855 159.855 0 0 1-26.856-8.08 134.336 134.336 0 0 1-23.252-12.207 119.571 119.571 0 0 1-18.543-14.939 101.319 101.319 0 0 1-20.81-29.064 78.416 78.416 0 0 1-3.836-9.301 68.32 68.32 0 0 1-0.93-2.965 12.207 12.207 0 0 1 21.856-10.463z" fill="#943436" p-id="71814"></path><path d="M232.177 413.413l4.185-6.975c1.57-2.267 3.313-5.232 5.522-8.313s4.65-6.568 7.615-10.172 6.162-7.499 9.708-11.626 7.498-8.08 11.625-12.033 8.894-7.963 13.602-11.974 9.824-7.673 15.056-11.103 10.58-6.801 15.87-10.056 10.753-5.813 16.043-8.545 10.463-5.057 15.578-6.918 9.708-4.069 14.242-5.464l12.207-4.01 9.591-2.674 8.313-2.21a20.403 20.403 0 1 1 10.58 39.412l-2.21 0.465h-0.988l-7.44 1.163-8.604 1.278-11.044 2.326c-4.07 0.755-8.254 2.092-12.847 3.255s-9.242 2.964-14.183 4.476-9.766 3.72-14.765 5.813-9.998 4.418-14.765 7.15-9.59 5.406-14.3 8.196-9.067 5.813-13.078 9.126-8.022 6.336-11.626 9.417-6.976 6.22-9.824 9.242-5.813 5.813-7.847 8.313-4.011 4.766-5.813 6.568l-4.302 6.802a9.591 9.591 0 0 1-15.81-10.754z" fill="#F7B523" p-id="71815"></path><path d="M895.428 502.292l-0.93 2.965a78.416 78.416 0 0 1-3.836 9.3 101.726 101.726 0 0 1-20.869 29.065 119.571 119.571 0 0 1-18.543 14.94A134.336 134.336 0 0 1 828 570.767a160.843 160.843 0 0 1-26.798 8.08 168.574 168.574 0 0 1-28.716 3.023h-3.72a32.552 32.552 0 0 1-3.313 0c-2.558 0-5.116 0-7.44-0.465-4.825-0.407-9.534-0.988-14.242-1.802a145.322 145.322 0 0 1-26.914-7.092 129.86 129.86 0 0 1-23.775-11.277 112.828 112.828 0 0 1-19.182-14.3 91.67 91.67 0 0 1-21.682-29.064 72.138 72.138 0 0 1-3.604-9.591l-0.989-3.43a12.09 12.09 0 0 1 21.915-9.766l0.407 0.698a75.975 75.975 0 0 0 5.813 7.906 88.88 88.88 0 0 0 19.24 16.857 133.697 133.697 0 0 0 15.346 8.312 158.518 158.518 0 0 0 18.66 6.743 191.244 191.244 0 0 0 20.984 4.36c3.604 0.523 7.267 0.872 10.929 1.104h11.102a137.068 137.068 0 0 0 21.915-1.802 124.222 124.222 0 0 0 20.752-4.882 130.674 130.674 0 0 0 18.31-7.325 126.605 126.605 0 0 0 15.114-9.01 100.33 100.33 0 0 0 19.24-17.845c2.093-2.732 3.372-4.07 4.535-5.813l1.744-2.558a12.207 12.207 0 0 1 21.856 10.463z" fill="#943436" p-id="71816"></path><path d="M887.116 424.342l-4.941-6.395c-1.57-1.802-3.255-4.069-5.813-6.568s-4.825-5.406-7.848-8.313-6.278-5.813-9.765-9.242-7.499-6.394-11.626-9.417-8.661-5.813-13.137-9.126-9.3-5.813-14.242-8.197-9.94-4.824-14.765-7.15-9.94-4.068-14.822-5.812-9.534-3.372-14.126-4.476-8.835-2.5-12.904-3.255l-10.987-2.326-8.603-1.278-7.499-1.163h-0.93a20.403 20.403 0 1 1 5.813-40.342l2.267 0.466 8.37 2.208 9.534 2.674 12.265 4.011c4.476 1.395 9.185 3.546 14.242 5.464s10.172 4.534 15.52 6.918 10.696 5.522 16.102 8.545 10.696 6.336 15.811 10.056 10.23 7.324 15.056 11.103 9.416 7.847 13.602 11.974 8.138 8.138 11.626 12.033 6.917 7.79 9.765 11.626 5.406 7.091 7.557 10.172 4.01 5.813 5.813 8.313l4.185 6.975a9.591 9.591 0 0 1-15.52 10.522z" fill="#F7B523" p-id="71817"></path><path d="M75.519 307.444L209.855 114.05v-1.628H87.785v-52.78H292.34v36.853L161.085 287.332v1.685H294.78v52.723H75.52z m248.327-121.431L424.7 40.69v-1.162h-91.67V0h153.577v27.611l-98.82 143.172v1.22h100.331v39.586H323.846z m210.834 14.474l75.567-108.76v-0.93H541.54V61.152h115.095v20.694l-73.94 107.364v0.93h75.103v29.646H534.68z" fill="#5FA5E1" p-id="71818"></path></svg>