<?xml version="1.0" standalone="no"?><!DOCTYPE svg PUBLIC "-//W3C//DTD SVG 1.1//EN" "http://www.w3.org/Graphics/SVG/1.1/DTD/svg11.dtd"><svg t="1714701137829" class="icon" viewBox="0 0 1024 1024" version="1.1" xmlns="http://www.w3.org/2000/svg" p-id="3610" xmlns:xlink="http://www.w3.org/1999/xlink" width="200" height="200"><path d="M990.980258 969.944422l-185.094554-185.094554c83.911344-83.23135 135.990938-198.518449 135.990938-325.781454C941.876642 205.950391 735.934251 0 482.824228 0 229.698205 0 23.747814 205.950391 23.747814 459.076413c0 253.142022 205.950391 459.060414 459.076414 459.060414 103.079195 0 198.334451-34.167733 275.037851-91.759283l188.342529 188.342528c6.183952 6.183952 14.279888 9.271928 22.383825 9.271928s16.199873-3.087976 22.391825-9.271928a31.655753 31.655753 0 0 0 0-44.77565zM87.06732 459.076413c0-218.222295 177.534613-395.748908 395.756908-395.748908 218.206295 0 395.732908 177.526613 395.732908 395.748908 0 218.198295-177.526613 395.740908-395.732908 395.740909-218.222295 0-395.756908-177.542613-395.756908-395.740909z" fill="#ffffff" p-id="3611"></path></svg>