<?xml version="1.0" standalone="no"?><!DOCTYPE svg PUBLIC "-//W3C//DTD SVG 1.1//EN" "http://www.w3.org/Graphics/SVG/1.1/DTD/svg11.dtd"><svg t="1714887258334" class="icon" viewBox="0 0 1024 1024" version="1.1" xmlns="http://www.w3.org/2000/svg" p-id="58911" xmlns:xlink="http://www.w3.org/1999/xlink" width="200" height="200"><path d="M705.54 444.94c-21.82 31.78-19.48 71.31 5.24 88.28s62.45 5 84.27-26.83 19.48-71.32-5.24-88.29-62.45-4.95-84.27 26.84z" fill="#FFD1CA" p-id="58912"></path><path d="M743.48 516.87a6 6 0 0 1-6-5.34c-3.47-31.48 12.93-46.45 20.14-51.43 8.14-5.61 20.22-9.6 28.85-5.84a6 6 0 0 1-4.79 11c-3.14-1.37-10.45 0-17.25 4.71-5.43 3.75-17.78 15.18-15 40.23a6 6 0 0 1-5.31 6.62 4.87 4.87 0 0 1-0.64 0.05z" fill="#FFBAB3" p-id="58913"></path><path d="M350.69 444.94c21.82 31.78 19.47 71.31-5.25 88.28s-62.45 5-84.27-26.83-19.47-71.32 5.25-88.29 62.44-4.95 84.27 26.84z" fill="#FFD1CA" p-id="58914"></path><path d="M312.75 516.87a5.12 5.12 0 0 1-0.67 0 6 6 0 0 1-5.3-6.62c2.76-25-9.59-36.48-15-40.23-6.8-4.69-14.11-6.08-17.24-4.71a6 6 0 0 1-4.79-11c8.63-3.76 20.7 0.23 28.85 5.84 7.21 5 23.6 19.95 20.13 51.43a6 6 0 0 1-5.98 5.29z" fill="#FFBAB3" p-id="58915"></path><path d="M785.64 962c0-120.29-127.9-217.83-248.08-218.31-120.17 0.48-254.2 98-254.2 218.31z" fill="#3CAFB5" p-id="58916"></path><path d="M588.15 755.92s-21.29 18.37-55 18.37c-36.75 0-58-18.37-58-18.37V646.83h113z" fill="#FFD1CA" p-id="58917"></path><path d="M750.6 495c0 122.87-99.62 222.48-222.49 222.48S305.63 617.87 305.63 495V367.84c0-122.87 99.61-222.49 222.48-222.49C651 145.35 750.6 245 750.6 367.84z" fill="#FFE6E1" p-id="58918"></path><path d="M523.69 570h-1.29c-16.07-0.68-26.22-14-27.33-15.54l-1.91-2.63v-131.1a10 10 0 1 1 20 0V544.8c2.33 2.26 6.13 5.07 10.16 5.21s8.6-2.55 13.31-8a10 10 0 1 1 15.12 13.09c-8.56 9.9-18 14.9-28.06 14.9z" fill="#F47A8F" p-id="58919"></path><path d="M613.32 438.32c0 17.54 12.52 31.76 27.95 31.76s27.94-14.22 27.94-31.76-12.51-31.75-27.94-31.75-27.95 14.22-27.95 31.75zM371.16 438.32c0 17.54 12.51 31.76 27.95 31.76s27.94-14.22 27.94-31.76-12.51-31.75-27.94-31.75-27.95 14.22-27.95 31.75zM429.21 382.35h-0.09l-60.07-0.87a6 6 0 1 1 0.18-12l60.06 0.86a6 6 0 0 1-0.08 12zM671.11 382.35H671l-60-0.87a6 6 0 0 1 0.09-12h0.08l60.07 0.86a6 6 0 0 1-0.08 12z" fill="#31296B" p-id="58920"></path><path d="M562.19 628.59H562l-74-1.07a10 10 0 1 1 0.29-20l74 1.07a10 10 0 0 1-0.14 20z" fill="#E83F63" p-id="58921"></path><path d="M754.91 262c28.17 71.91-1.18 175.65-8.91 147.82-25.22-90.72-43.71-127.14-69.31-160-15.34-19.69-56.66-70-29.23-79.12S729.82 198 754.91 262zM303.35 267.24c-27.55 73.31 0 168 7.32 141 23.77-88.06 41.41-123.48 66-155.51 14.72-19.18 54.38-68.27 27.74-76.86s-77.62 28.99-101.06 91.37z" fill="#894F38" p-id="58922"></path><path d="M529.5 813c42.8 0 77.5-23.73 77.5-53a36.77 36.77 0 0 0-0.48-5.86 247.2 247.2 0 0 0-69-10.45c-28.39 0.11-57.55 5.65-85.53 15.62v0.69c0.01 29.27 34.71 53 77.51 53z" fill="#FFD1CA" p-id="58923"></path><path d="M553.06 823.81c-6.77 0.64-13.68 1-20.78 1a219.06 219.06 0 0 1-22-1.15v123.56h42.78z" fill="#F1F1F1" p-id="58924"></path><path d="M578.21 901.21c45.61-21.08 93.45-135.79 18.24-155 0.92 39.44-42.8 62.52-76.58 59.39z" fill="#F1F1F1" p-id="58925"></path><path d="M484.71 901.21c-45.61-21.08-93.45-135.79-18.24-155-0.92 39.44 42.8 62.52 76.58 59.39z" fill="#F1F1F1" p-id="58926"></path></svg>