<?xml version="1.0" standalone="no"?><!DOCTYPE svg PUBLIC "-//W3C//DTD SVG 1.1//EN" "http://www.w3.org/Graphics/SVG/1.1/DTD/svg11.dtd"><svg t="1714886882697" class="icon" viewBox="0 0 1024 1024" version="1.1" xmlns="http://www.w3.org/2000/svg" p-id="33628" xmlns:xlink="http://www.w3.org/1999/xlink" width="200" height="200"><path d="M853.305601 625.79072c-85.33056 0-190.230262 201.778331-199.10464 284.4352-11.974722 111.356381 56.88704 113.77408 56.88704 113.77408h312.87872V739.5648s-97.788822-113.77408-170.66112-113.77408z" fill="#50A5E6" p-id="33629"></path><path d="M824.634533 833.655964c45.936285-79.556526 65.107217-154.448314 42.807497-167.333228-22.271276-12.856471-77.565479 41.186217-123.501764 120.742742-45.936285 79.556526-65.135661 154.505201-42.835941 167.361672 22.29972 12.856471 77.593923-41.214661 123.530208-120.771186z" fill="#1C6399" p-id="33630"></path><path d="M571.316543 0.033279c33.591797 0 60.812246 27.220449 60.812246 60.812246 0 22.441937 19.000271 307.872661 19.000272 307.872661L510.504297 512.016639V60.845525C510.504297 27.253728 537.724746 0.033279 571.316543 0.033279z" fill="#F9CA55" p-id="33631"></path><path d="M536.871441 122.994616c0-31.259429 24.233879-56.574161 54.128018-56.574161 29.89414 0 54.128019 25.343176 54.128019 56.574161 0 0 15.217283 169.011396 33.904676 266.515783 24.973411 53.075608 38.939179 133.172561 35.867278 177.715113 1.53595 11.320521 159.9948 142.388261 159.994801 142.388261-7.992629 51.568102-64.253912 175.069866-135.362712 232.07068l-100.149634-83.168853c-82.059555-11.491182-126.801212-94.745365-126.801213-121.283169 0-84.875464 24.290766-614.237815 24.290767-614.237815z" fill="#FFDC5D" p-id="33632"></path><path d="M170.66112 625.79072c85.33056 0 190.230262 201.778331 199.10464 284.4352 11.974722 111.356381-56.88704 113.77408-56.88704 113.77408H0V739.5648s97.788822-113.77408 170.66112-113.77408z" fill="#50A5E6" p-id="33633"></path><path d="M322.833952 954.398706c22.271276-12.884915 3.128787-87.805146-42.835941-167.361671-45.936285-79.556526-101.230488-133.627657-123.501764-120.742743-22.29972 12.856471-3.128787 87.776703 42.807498 167.333228s101.258931 133.627657 123.530207 120.771186z" fill="#1C6399" p-id="33634"></path><path d="M456.831375 0.346158a60.158045 60.158045 0 0 0-66.358732 59.816722c0 22.185946-5.233608 293.508683-5.233608 293.508683L508.996791 512.016639l1.763498-448.412093c0-31.458533-22.612598-60.129601-53.928914-63.258388z" fill="#F9CA55" p-id="33635"></path><path d="M487.095281 122.994616c0-31.259429-24.233879-56.574161-54.128019-56.574161-29.89414 0-54.128019 25.343176-54.128019 56.574161 0 0-15.217283 169.011396-33.904676 266.515783-24.973411 53.075608-38.939179 133.172561-35.867278 177.715113-1.53595 11.320521-159.9948 142.388261-159.994801 142.388261C157.065118 761.181875 213.3264 884.683639 284.4352 941.684453l100.149634-83.168853c82.059555-11.491182 126.801212-94.745365 126.801213-121.283169 0-84.875464-24.290766-614.237815-24.290766-614.237815z" fill="#FFDC5D" p-id="33636"></path><path d="M510.788733 734.530297a21.33264 21.33264 0 0 1-21.33264-21.33264V79.447587a21.33264 21.33264 0 0 1 42.66528 0v633.778513a21.304197 21.304197 0 0 1-21.33264 21.304197z" fill="#F9CA55" p-id="33637"></path></svg>