<?xml version="1.0" standalone="no"?><!DOCTYPE svg PUBLIC "-//W3C//DTD SVG 1.1//EN" "http://www.w3.org/Graphics/SVG/1.1/DTD/svg11.dtd"><svg t="1714709229304" class="icon" viewBox="0 0 1024 1024" version="1.1" xmlns="http://www.w3.org/2000/svg" p-id="43405" xmlns:xlink="http://www.w3.org/1999/xlink" width="200" height="200"><path d="M588.4 525.8L483.3 631l-39.7-39.8c-18.4-18.4-48.2-18.4-66.6 0-18.4 18.4-18.4 48.3 0 66.7l73 73.1c18.4 18.4 48.2 18.4 66.6 0L655 592.5c18.4-18.4 18.4-48.3 0-66.7-18.4-18.4-48.2-18.4-66.6 0z m64.9-226c0-78.1-63.2-141.5-141.3-141.5s-141.3 63.3-141.3 141.5h282.6z m-376.7 0C276.6 169.6 382 64 512 64s235.4 105.6 235.4 235.8h52.5c36.8 0 67.5 28.3 70.4 65.1l37.4 468.6c2.7 33.2-18.2 63.8-50.1 73.4C739.9 942.3 624.6 960 512 960c-112.6 0-227.9-17.7-345.7-53.1-31.9-9.6-52.8-40.2-50.1-73.4l37.4-468.6c2.9-36.8 33.6-65.1 70.4-65.1h52.6z" fill="#dbdbdb" p-id="43406"></path></svg>