<?xml version="1.0" standalone="no"?><!DOCTYPE svg PUBLIC "-//W3C//DTD SVG 1.1//EN" "http://www.w3.org/Graphics/SVG/1.1/DTD/svg11.dtd"><svg t="1714709168203" class="icon" viewBox="0 0 1024 1024" version="1.1" xmlns="http://www.w3.org/2000/svg" p-id="40316" xmlns:xlink="http://www.w3.org/1999/xlink" width="200" height="200"><path d="M757.76 409.6c0-135.68-110.08-245.76-245.76-245.76S266.24 273.92 266.24 409.6C141.824 409.6 40.96 510.464 40.96 634.88s100.864 225.28 225.28 225.28h491.52c124.416 0 225.28-100.864 225.28-225.28s-100.864-225.28-225.28-225.28z m-108.032 144.384c-11.264 11.264-29.184 12.288-41.472 2.048l-2.048-2.048L542.72 490.496V706.56c0 16.896-13.824 30.72-30.72 30.72s-30.72-13.824-30.72-30.72V491.008l-63.488 63.488c-11.264 11.264-29.184 12.288-41.472 2.048l-2.048-2.048c-11.264-11.264-12.288-29.184-2.048-41.472l2.048-2.048 115.712-115.712c11.264-11.264 29.184-12.288 41.472-2.048l2.048 2.048 115.712 115.712c12.288 11.776 12.8 31.232 0.512 43.008z" fill="#dbdbdb" p-id="40317"></path></svg>