<?xml version="1.0" standalone="no"?><!DOCTYPE svg PUBLIC "-//W3C//DTD SVG 1.1//EN" "http://www.w3.org/Graphics/SVG/1.1/DTD/svg11.dtd"><svg t="1714886936775" class="icon" viewBox="0 0 1327 1024" version="1.1" xmlns="http://www.w3.org/2000/svg" p-id="34753" xmlns:xlink="http://www.w3.org/1999/xlink" width="259.1796875" height="200"><path d="M136.528277 1024c-15.169809 0-22.754713-14.942261-22.754713-22.375468 0-7.54698 7.584904-22.451317 15.169808-22.451316 348.905596-142.027332 728.150809-216.738639 1099.811119-231.718825v7.47113c30.339617 0 68.264138-7.471131 98.603755-7.47113v14.980185c-379.245213 37.355653-750.905522 112.06696-1107.396022 224.209771-22.754713 22.375468-53.09433 29.884523-83.433947 37.355653z m864.679086-426.044072c-37.924521 0-75.849043-7.471131-98.603756-37.317729-22.754713-29.922447-45.509426-59.844895-45.509425-97.200549 0-104.633754 30.339617-201.796378 98.603755-284.01674 60.679234-82.220362 151.698085-141.989408 250.301841-179.382985 37.924521 0 68.264138 22.451317 83.433947 52.335839-7.584904 7.433206-15.169809 14.942261-22.754713 14.942261 37.924521 14.942261 53.09433 44.826784 53.09433 82.220363 7.584904 209.267509-128.943372 396.121625-318.565979 448.41954z m204.792415-478.341988c-15.169809 7.471131-37.924521 22.413392-53.09433 37.393578-7.584904 0-7.584904-7.471131-7.584904-14.980186-113.773564 67.278101-189.622607 186.892041-197.207511 313.901263 0 14.980186 7.584904 67.278101 30.339617 59.844895 37.924521-14.980186 68.264138-29.922447 91.018851-59.844895l75.849043-82.182437c45.509426-59.80697 75.849043-134.518277 91.018851-209.267509 15.169809-22.451317-7.584904-37.393578-30.339617-44.864709zM159.28299 224.285619L75.849043 261.641273c-7.584904 7.471131-15.169809 7.471131-22.754713 7.47113-7.584904 0-7.584904-14.980186-7.584904-22.413392 0-22.413392 15.169809-37.393578 37.924521-44.864709C128.943372 164.440724 174.452798 134.594126 227.547128 112.14281c22.754713 7.471131 37.924521 29.884523 45.509425 52.335839 0 22.375468 0 22.375468-106.188659 261.603348-37.924521 74.711307-68.264138 156.931669-75.849043 239.152031 0 7.471131 7.584904 22.413392 7.584904 29.922448v7.47113l-7.584904 7.471131c-7.584904 0-15.169809 0-15.169808-7.471131-37.924521 0-68.264138-22.451317-75.849043-59.80697 0-59.80697 15.169809-127.047146 37.924521-179.382986 30.339617-82.220362 75.849043-156.931669 121.358469-239.152031z m667.471575-7.509055c15.169809 201.834302-113.773564 381.217288-310.981075 433.515203-37.924521 0-75.849043-7.471131-98.603756-37.393578-30.339617-22.413392-45.509426-59.769046-45.509425-97.124699 0-104.671679 30.339617-201.834302 98.603755-284.054665 60.679234-82.182438 151.698085-141.989408 250.301841-179.382986 37.924521 0 68.264138 22.451317 83.433947 52.33584-7.584904 7.471131-15.169809 14.942261-22.754713 14.942261 22.754713 22.413392 45.509426 59.80697 45.509426 97.162624zM720.565905 171.94978c-15.169809 7.471131-37.924521 22.413392-53.09433 37.355653-7.584904 0-7.584904-7.471131-7.584904-14.942261-113.773564 67.278101-189.622607 186.854117-197.207511 313.939187 0 14.904337 7.584904 67.278101 30.339617 59.769046 37.924521-14.942261 68.264138-29.884523 91.018851-59.769046l75.849043-82.220362c45.509426-59.80697 75.849043-134.518277 91.018851-209.305433 15.169809-22.375468-7.584904-37.355653-30.339617-44.826784zM30.339617 889.481723c348.905596-142.027332 728.150809-216.776564 1099.811118-231.718825v7.47113c37.924521 0 68.264138-7.471131 98.603756-7.47113v14.942261c-379.245213 37.393578-750.905522 112.14281-1107.396023 224.247695-30.339617 14.980186-53.09433 22.413392-83.433947 29.884522H30.339617c-7.584904 0-15.169809-7.471131-15.169808-22.413392l15.169808-14.942261z" fill="#FA5151" p-id="34754"></path></svg>