<?xml version="1.0" standalone="no"?><!DOCTYPE svg PUBLIC "-//W3C//DTD SVG 1.1//EN" "http://www.w3.org/Graphics/SVG/1.1/DTD/svg11.dtd"><svg t="1715007961470" class="icon" viewBox="0 0 1024 1024" version="1.1" xmlns="http://www.w3.org/2000/svg" p-id="45757" xmlns:xlink="http://www.w3.org/1999/xlink" width="48" height="48"><path d="M399.530667 948.309333a129.962667 129.962667 0 0 1-101.461334-129.152v-12.117333h74.368v17.066667a52.352 52.352 0 0 0 52.138667 52.266666 52.352 52.352 0 0 0 52.309333-52.266666v-177.877334a101.077333 101.077333 0 0 1 34.133334-6.144h2.261333a110.933333 110.933333 0 0 1 37.845333 7.424v176.597334a126.805333 126.805333 0 0 1-126.72 126.634666 132.522667 132.522667 0 0 1-24.874666-2.432z m263.253333-303.530666a178.304 178.304 0 0 0-147.882667-79.061334h-3.626666a178.517333 178.517333 0 0 0-148.394667 79.232 17.365333 17.365333 0 0 1-28.928-1.194666 160.512 160.512 0 0 0-123.349333-76.8 201.045333 201.045333 0 0 0-18.005334-0.810667 170.666667 170.666667 0 0 0-110.933333 39.253333 17.578667 17.578667 0 0 1-28.501333-14.378666 457.472 457.472 0 0 1 423.637333-430.122667V102.826667a17.536 17.536 0 0 1 17.493333-17.493334h39.381334a17.536 17.536 0 0 1 17.493333 17.493334v58.325333a454.784 454.784 0 0 1 419.541333 431.488 17.664 17.664 0 0 1-28.416 14.464 173.525333 173.525333 0 0 0-111.957333-41.386667h-1.109333a166.869333 166.869333 0 0 0-138.026667 78.933334 17.066667 17.066667 0 0 1-14.250667 7.552 17.066667 17.066667 0 0 1-14.165333-7.424z m-279.338667-118.912a247.466667 247.466667 0 0 1 128-34.602667h4.906667a254.250667 254.250667 0 0 1 122.453333 32.938667c-1.152-68.949333-16.298667-231.978667-127.616-282.24-112.213333 50.688-126.72 215.893333-127.701333 283.904z m329.728-2.517334a224.213333 224.213333 0 0 1 115.968-32.085333 254.250667 254.250667 0 0 1 51.968 5.546667 391.765333 391.765333 0 0 0-240.810666-240.64 499.584 499.584 0 0 1 72.917333 267.178666z m-495.957333-30.506666a224.896 224.896 0 0 1 91.776 28.202666 498.133333 498.133333 0 0 1 72.277333-263.978666 391.594667 391.594667 0 0 0-238.506666 239.573333 255.146667 255.146667 0 0 1 49.834666-4.906667c8.021333 0.042667 16.213333 0.384 24.661334 1.152z" fill="#333333" p-id="45758"></path></svg>