<?xml version="1.0" standalone="no"?><!DOCTYPE svg PUBLIC "-//W3C//DTD SVG 1.1//EN" "http://www.w3.org/Graphics/SVG/1.1/DTD/svg11.dtd"><svg t="1715002517223" class="icon" viewBox="0 0 1024 1024" version="1.1" xmlns="http://www.w3.org/2000/svg" p-id="5442" xmlns:xlink="http://www.w3.org/1999/xlink" width="48" height="48"><path d="M310.72 832c-119.04 0.704-221.44-82.688-242.752-197.76-21.248-115.008 44.736-228.48 156.48-268.864 18.048-122.496 116.608-218.304 241.472-234.88 124.8-16.512 245.76 50.24 296.192 163.584 115.52 34.432 195.392 137.92 197.888 256.448v5.952c-1.088 149.632-122.816 271.488-275.2 275.392H310.272l0.512 0.128z m192.64-649.6c-116.928 0.256-214.464 87.808-225.216 202.176l-1.792 22.72-17.92 4.48c-91.328 25.472-149.504 113.28-136.128 205.632 13.44 92.288 94.208 160.64 189.12 160.064h372.48c121.984-3.2 219.52-100.672 220.736-220.544v-5.44c-2.24-96.832-68.736-180.8-163.712-206.72L720 339.2l-5.376-15.104C680.576 238.656 596.736 182.4 503.36 182.4z" fill="#38415C" p-id="5443"></path><path d="M378.624 414.4H626.56c15.808 0 28.608 12.544 28.608 28.096 0 15.488-12.8 28.032-28.608 28.032H378.624a28.352 28.352 0 0 1-28.608-28.032c0-15.552 12.8-28.096 28.608-28.096z m0 93.632H626.56a28.8 28.8 0 0 1 20.224 8.192c5.376 5.248 8.32 12.416 8.32 19.84 0 15.488-12.8 28.096-28.544 28.096H378.624a28.352 28.352 0 0 1-28.608-28.096c0-7.424 3.008-14.592 8.32-19.84a28.8 28.8 0 0 1 20.288-8.192z m0 112.384H626.56c15.808 0 28.608 12.544 28.608 28.032a27.84 27.84 0 0 1-8.384 19.84 28.8 28.8 0 0 1-20.224 8.256H378.624a28.352 28.352 0 0 1-28.608-28.096c0-15.488 12.8-28.032 28.608-28.032z" fill="#38415C" p-id="5444"></path></svg>