<?xml version="1.0" standalone="no"?><!DOCTYPE svg PUBLIC "-//W3C//DTD SVG 1.1//EN" "http://www.w3.org/Graphics/SVG/1.1/DTD/svg11.dtd"><svg t="1715002782879" class="icon" viewBox="0 0 1024 1024" version="1.1" xmlns="http://www.w3.org/2000/svg" p-id="17240" xmlns:xlink="http://www.w3.org/1999/xlink" width="48" height="48"><path d="M778.971429 950.857143h-533.942858A172.105143 172.105143 0 0 1 73.142857 778.971429v-533.942858A172.105143 172.105143 0 0 1 245.028571 73.142857h533.942858A172.105143 172.105143 0 0 1 950.857143 245.028571v533.942858A172.105143 172.105143 0 0 1 778.971429 950.857143zM245.028571 104.886857c-77.238857 0-140.141714 62.902857-140.141714 140.141714v533.942858c0 77.312 62.902857 140.214857 140.141714 140.214857h533.942858c77.312 0 140.214857-62.902857 140.214857-140.214857v-533.942858c0-77.238857-62.902857-140.141714-140.214857-140.141714h-533.942858z" fill="#666666" p-id="17241"></path><path d="M512 807.277714a15.506286 15.506286 0 0 1-10.971429-4.534857L285.842286 587.483429a167.789714 167.789714 0 0 1 66.706285-277.942858 170.422857 170.422857 0 0 1 75.337143-6.436571 15.506286 15.506286 0 0 1-4.315428 30.72 135.533714 135.533714 0 0 0-115.858286 38.473143 136.923429 136.923429 0 0 0 0 193.316571L512 769.901714l204.214857-204.288a136.923429 136.923429 0 0 0 0-193.316571 136.923429 136.923429 0 0 0-193.316571 0L402.870857 492.397714a15.433143 15.433143 0 1 1-21.942857-21.942857L501.028571 350.354286a167.862857 167.862857 0 0 1 237.129143 0 167.789714 167.789714 0 0 1 0 237.129143l-215.259428 215.186285a15.36 15.36 0 0 1-10.898286 4.608z" fill="#666666" p-id="17242"></path></svg>