<?xml version="1.0" standalone="no"?><!DOCTYPE svg PUBLIC "-//W3C//DTD SVG 1.1//EN" "http://www.w3.org/Graphics/SVG/1.1/DTD/svg11.dtd"><svg t="1715002601922" class="icon" viewBox="0 0 1024 1024" version="1.1" xmlns="http://www.w3.org/2000/svg" p-id="8739" xmlns:xlink="http://www.w3.org/1999/xlink" width="48" height="48"><path d="M512.7 64.5c-170.5 0-309.3 138.8-309.3 309.3 0 122 69.8 230.2 179.4 280.7v35.6c0 15.4 12.5 27.9 27.9 27.9h204.1c15.4 0 27.9-12.5 27.9-27.9v-35.6C752.2 604 822 495.8 822 373.8c0-170.6-138.8-309.3-309.3-309.3z m91.9 545.6c-10.7 4.2-17.8 14.5-17.8 26v26.1H438.6v-26.1c0-11.5-7.1-21.8-17.8-26-98.2-38.2-161.6-131-161.6-236.3 0-139.8 113.7-253.5 253.5-253.5S766.2 234 766.2 373.8c0 105.3-63.4 198-161.6 236.3z" fill="#4F4F4F" p-id="8740"></path><path d="M722.1 326.5c-2.3-10-12.2-16.3-22.2-14.1-10 2.3-16.3 12.2-14 22.2 2.9 12.7 4.3 25.9 4.3 39.1 0 6.7-0.4 13.6-1.2 20.3-1.2 10.2 6.2 19.4 16.4 20.6 0.7 0.1 1.5 0.1 2.2 0.1 9.3 0 17.4-7 18.4-16.5 0.9-8.1 1.4-16.4 1.4-24.5-0.1-15.9-1.9-31.8-5.3-47.2zM685 245.9c-31.9-42.9-78.1-72.2-130.2-82.5-10-2-19.9 4.6-21.9 14.6-2 10.1 4.5 19.9 14.6 21.9 43 8.5 81.3 32.8 107.6 68.3 3.6 4.9 9.2 7.5 14.9 7.5 3.9 0 7.8-1.2 11.1-3.7 8.3-6.3 10-17.9 3.9-26.1zM580.8 753.6H441.3c-15.4 0-27.9 12.5-27.9 27.9 0 15.4 12.5 27.9 27.9 27.9h139.5c15.4 0 27.9-12.5 27.9-27.9 0-15.4-12.5-27.9-27.9-27.9zM566.1 840.7H459.2c-15.4 0-27.9 12.5-27.9 27.9 0 15.4 12.5 27.9 27.9 27.9h106.9c15.4 0 27.9-12.5 27.9-27.9 0-15.4-12.5-27.9-27.9-27.9zM536.4 923.5h-47.5c-10.3 0-18.6 8.3-18.6 18.6s8.3 18.6 18.6 18.6h47.5c10.3 0 18.6-8.3 18.6-18.6 0-10.2-8.3-18.6-18.6-18.6zM609.4 364.7c-9.6-3.7-20.4 0.9-24.1 10.5l-72.6 183.6-62.5-158.2h77.6c10.3 0 18.6-8.4 18.6-18.6 0-10.3-8.3-18.6-18.6-18.6h-105c-0.5 0-0.9 0.1-1.4 0.1-0.7 0.1-1.4 0.1-2.1 0.2-0.7 0.1-1.4 0.4-2.1 0.6-0.4 0.1-0.9 0.2-1.3 0.3-0.1 0.1-0.1 0.1-0.2 0.1-0.7 0.3-1.4 0.7-2.1 1.1-0.4 0.2-0.8 0.4-1.2 0.7-0.6 0.3-1.1 0.8-1.6 1.3-0.4 0.3-0.9 0.6-1.2 1-0.5 0.5-0.9 1-1.3 1.5-0.3 0.4-0.7 0.8-1 1.2-0.5 0.7-0.8 1.4-1.1 2.1-0.2 0.4-0.4 0.7-0.6 1.1-0.3 0.6-0.4 1.2-0.6 1.9-0.2 0.5-0.4 1-0.5 1.6-0.1 0.5-0.1 0.9-0.2 1.4-0.1 0.8-0.2 1.5-0.2 2.3v0.2c0 0.4 0.1 0.9 0.1 1.3 0 0.7 0.1 1.4 0.2 2.2l0.6 2.1c0.1 0.4 0.2 0.9 0.4 1.3l88.8 224.7c2.9 7.3 9.9 11.8 17.3 11.8 0.4 0 0.7-0.1 1.1-0.1 0.4 0 0.7 0.1 1.1 0.1 7.4 0 14.4-4.5 17.3-11.8L619.8 389c3.8-9.7-0.9-20.5-10.4-24.3z" fill="#4F4F4F" p-id="8741"></path></svg>