<?xml version="1.0" standalone="no"?><!DOCTYPE svg PUBLIC "-//W3C//DTD SVG 1.1//EN" "http://www.w3.org/Graphics/SVG/1.1/DTD/svg11.dtd"><svg t="1714564092490" class="icon" viewBox="0 0 1024 1024" version="1.1" xmlns="http://www.w3.org/2000/svg" p-id="25382" xmlns:xlink="http://www.w3.org/1999/xlink" width="48" height="48"><path d="M512 962c248.52272695 0 450-201.47727305 450-450S760.52272695 62 512 62 62 263.47727305 62 512s201.47727305 450 450 450z m0-65.45454521a384.54545479 384.54545479 0 1 1 0-769.09090958 384.54545479 384.54545479 0 0 1 0 769.09090958z" p-id="25383" fill="#8a8a8a"></path><path d="M296.53181826 657.30909131l95.03181827-228.06818262a53.18181826 53.18181826 0 0 1 27.85909042-28.30909043l238.7045461-103.90909131a53.18181826 53.18181826 0 0 1 70.77272695 68.11363653l-88.77272695 227.74090957a53.18181826 53.18181826 0 0 1-28.71818174 29.61818174l-244.96363652 104.1954539a53.18181826 53.18181826 0 0 1-69.91363653-69.38181738z m284.48181827-92.98636436L657.22727305 368.81818174 450.10454521 458.98181826l-81.53181826 195.70909043 212.44090958-90.40909043z" p-id="25384" fill="#8a8a8a"></path></svg>