<?xml version="1.0" standalone="no"?><!DOCTYPE svg PUBLIC "-//W3C//DTD SVG 1.1//EN" "http://www.w3.org/Graphics/SVG/1.1/DTD/svg11.dtd"><svg t="1714564140714" class="icon" viewBox="0 0 1024 1024" version="1.1" xmlns="http://www.w3.org/2000/svg" p-id="28542" xmlns:xlink="http://www.w3.org/1999/xlink" width="48" height="48"><path d="M882.087385 570.18519H778.577916v-34.504861s50.091862-0.148379 77.205383-0.14838c52.981678 2.659573 73.084529-31.159674 72.310909-80.360235V213.644845c0-48.702212-20.149922-69.0087-69.010747-69.0087H456.540386c-48.867988 0-69.0087 43.310412-69.0087 92.0116h-34.504862v-34.503839c0-48.702212 44.040029-92.0116 92.897783-92.0116H874.121969c48.860824 0 88.474031 39.473013 88.474031 88.175225v282.161335c0.001023 48.702212-31.649837 89.716324-80.508615 89.716324zM732.573139 374.663098v335.071382c0 48.693002-31.650861 78.974679-80.507591 78.974679H410.536632L153.968186 903.723659l38.040384-115.0145h-34.499745c-48.870034 0-92.0116-30.281677-92.0116-78.974679v-335.071382c0-48.702212 43.141566-80.509638 92.0116-80.509638h494.556723c48.856731 0 80.507592 31.807427 80.507591 80.509638z m-552.064484-46.0058c-48.867988 0-80.508615 20.307512-80.508615 69.009724v287.532669c0 48.699142 20.138666 69.00563 69.0087 69.00563h80.509639l-34.503839 80.509638 151.279449-80.889285 262.767635 0.379647c48.866964 0 69.009723-20.306488 69.009724-69.00563V397.667022c0-48.702212-20.142759-69.009723-69.009724-69.009724H180.508655z m23.003923 253.028831H606.056678v34.504862H203.512578v-34.504862z m0-126.513392H606.056678v34.503838H203.512578v-34.503838z" fill="#8a8a8a" p-id="28543"></path></svg>