<?xml version="1.0" standalone="no"?><!DOCTYPE svg PUBLIC "-//W3C//DTD SVG 1.1//EN" "http://www.w3.org/Graphics/SVG/1.1/DTD/svg11.dtd"><svg t="1715003219641" class="icon" viewBox="0 0 1024 1024" version="1.1" xmlns="http://www.w3.org/2000/svg" p-id="24956" xmlns:xlink="http://www.w3.org/1999/xlink" width="48" height="48"><path d="M0 0h1024v1024H0z" fill="#202425" opacity=".01" p-id="24957"></path><path d="M68.266667 503.876267C68.266667 262.656 267.605333 68.266667 512 68.266667s443.733333 194.389333 443.733333 435.6096V921.6a34.133333 34.133333 0 0 1-34.133333 34.133333h-102.4a102.4 102.4 0 0 1-102.4-102.4v-136.533333a102.4 102.4 0 0 1 102.4-102.4h68.266667v-110.523733C887.466667 301.636267 720.008533 136.533333 512 136.533333S136.533333 301.636267 136.533333 503.876267V614.4h68.266667a102.4 102.4 0 0 1 102.4 102.4v136.533333a102.4 102.4 0 0 1-102.4 102.4H102.4a34.133333 34.133333 0 0 1-34.133333-34.133333V503.876267zM136.533333 682.666667v204.8h68.266667a34.133333 34.133333 0 0 0 34.133333-34.133334v-136.533333a34.133333 34.133333 0 0 0-34.133333-34.133333H136.533333z m750.933334 0h-68.266667a34.133333 34.133333 0 0 0-34.133333 34.133333v136.533333a34.133333 34.133333 0 0 0 34.133333 34.133334h68.266667v-204.8z m-375.466667-68.266667a34.133333 34.133333 0 0 1 34.133333 34.133333v273.066667a34.133333 34.133333 0 1 1-68.266666 0v-273.066667a34.133333 34.133333 0 0 1 34.133333-34.133333z m-136.533333 68.266667a34.133333 34.133333 0 0 1 34.133333 34.133333v136.533333a34.133333 34.133333 0 1 1-68.266667 0v-136.533333a34.133333 34.133333 0 0 1 34.133334-34.133333z m273.066666 0a34.133333 34.133333 0 0 1 34.133334 34.133333v136.533333a34.133333 34.133333 0 1 1-68.266667 0v-136.533333a34.133333 34.133333 0 0 1 34.133333-34.133333z" fill="#202425" p-id="24958"></path></svg>