<?xml version="1.0" standalone="no"?><!DOCTYPE svg PUBLIC "-//W3C//DTD SVG 1.1//EN" "http://www.w3.org/Graphics/SVG/1.1/DTD/svg11.dtd"><svg t="1714564175259" class="icon" viewBox="0 0 1024 1024" version="1.1" xmlns="http://www.w3.org/2000/svg" p-id="29782" xmlns:xlink="http://www.w3.org/1999/xlink" width="48" height="48"><path d="M232.406 487.311c-2.678 0-4.791 0.387-6.448 1.051 2.252-0.677 4.655-1.051 7.124-1.051h-0.677zM972 781.983c0.069-1.366 0.25-2.707 0.54-4.004-0.317 0.595-0.483 1.863-0.54 4.004zM1021.338 237.615c0.015-0.055 0.015-0.124 0.015-0.18v-0.636c0 0.275 0 0.551-0.015 0.815zM971.971 237.531c0 0.055 0 0.11 0.015 0.166-0.015-0.29-0.015-0.595-0.015-0.897v0.732zM1001.747 977.937c-9.689-70.651-33.377-134.229-68.234-190.125 18.593 32.571 13.829 23.582 8.775 14.772-0.021-0.051-0.058-0.092-0.102-0.123-21.852-37.050-48.723-71.487-80.042-102.224l-0.015-0.015c-6.809-6.684-13.822-13.2-21.044-19.526-51.492-45.126-110.937-78.585-174.332-98.938 11.474-6.352 22.577-13.477 33.238-21.361 12.138-8.948 23.695-18.891 34.563-29.758 57.152-57.152 88.637-133.154 88.637-213.988 0-80.834-31.483-156.836-88.637-213.988-56.117-56.117-130.406-87.476-209.584-88.608-1.258-0.015-2.512-0.027-3.77-0.027-1.258 0-2.512 0.015-3.77 0.027-79.178 1.132-153.466 32.492-209.584 88.608-57.152 57.152-88.637 133.154-88.637 213.988 0 80.834 31.483 156.836 88.637 213.988 10.868 10.868 22.426 20.81 34.563 29.758 10.661 7.885 21.762 15.011 33.238 21.361-63.395 20.354-122.841 53.811-174.332 98.938-7.222 6.324-14.236 12.841-21.044 19.526-31.345 30.765-58.243 65.23-80.158 102.362-5.054 8.81-9.818 17.799-14.319 26.941-28.404 56.429-46.198 122.609-49.003 192.646 1.638-27.665 13.265-12.432 29.822-10.21 1.366 0.18 2.734 0.275 4.075 0.275 1.228 0 2.429-0.069 3.631-0.221 11.973-2.609 21.638-12.372 23.516-25.201 13.946-95.719 59.569-182.7 125.146-248.939 77.824-78.64 183.749-128.061 298.221-128.253h0.649c114.223 0.387 219.899 49.766 297.571 128.253 65.575 66.239 111.2 153.217 125.146 248.939 1.878 12.8 11.502 22.549 23.446 25.187 0.027 0 0.041 0.015 0.069 0.015 1.201 0.151 2.403 0.221 3.631 0.221 1.341 0 2.707-0.097 4.075-0.275 16.556-2.222 28.182-17.455 25.959-34.025zM520.551 558.755c-0.607 0-1.216 0-1.823-0.015-112.953-0.83-213.658-79.302-241.177-184.563-0.305-1.146-0.607-2.306-0.885-3.465-4.308-17.398-6.602-35.487-6.602-54.061s2.292-36.868 6.602-54.572c0.275-1.187 0.58-2.362 0.885-3.535 27.671-107.899 129.316-193.662 242.999-193.662h1.298c113.685 0 215.328 85.764 242.999 193.662 0.305 1.173 0.607 2.348 0.885 3.535 4.308 17.702 6.602 35.998 6.602 54.572 0 18.572-2.292 36.661-6.602 54.061-0.275 1.161-0.58 2.319-0.885 3.465-27.521 105.262-128.225 183.735-241.177 184.563-1.036 0.015-2.071 0.015-3.121 0.015z" fill="#8a8a8a" p-id="29783"></path></svg>