<?xml version="1.0" standalone="no"?><!DOCTYPE svg PUBLIC "-//W3C//DTD SVG 1.1//EN" "http://www.w3.org/Graphics/SVG/1.1/DTD/svg11.dtd"><svg t="1715005512462" class="icon" viewBox="0 0 1024 1024" version="1.1" xmlns="http://www.w3.org/2000/svg" p-id="6873" xmlns:xlink="http://www.w3.org/1999/xlink" width="48" height="48"><path d="M138.666667 91.733333C115.2 74.666667 85.333333 93.866667 85.333333 123.733333v179.2c0 29.866667 29.866667 49.066667 53.333334 34.133334l140.8-89.6c23.466667-14.933333 23.466667-51.2 0-66.133334L138.666667 91.733333zM426.666667 170.666667c-23.466667 0-42.666667 19.2-42.666667 42.666666s19.2 42.666667 42.666667 42.666667h490.666666c23.466667 0 42.666667-19.2 42.666667-42.666667s-19.2-42.666667-42.666667-42.666666H426.666667zM64 512c0 23.466667 19.2 42.666667 42.666667 42.666667h810.666666c23.466667 0 42.666667-19.2 42.666667-42.666667s-19.2-42.666667-42.666667-42.666667H106.666667c-23.466667 0-42.666667 19.2-42.666667 42.666667M106.666667 853.333333h810.666666c23.466667 0 42.666667-19.2 42.666667-42.666666s-19.2-42.666667-42.666667-42.666667H106.666667c-23.466667 0-42.666667 19.2-42.666667 42.666667s19.2 42.666667 42.666667 42.666666" fill="#2c2c2c" p-id="6874"></path></svg>