<?xml version="1.0" standalone="no"?><!DOCTYPE svg PUBLIC "-//W3C//DTD SVG 1.1//EN" "http://www.w3.org/Graphics/SVG/1.1/DTD/svg11.dtd"><svg t="1715003564185" class="icon" viewBox="0 0 1024 1024" version="1.1" xmlns="http://www.w3.org/2000/svg" p-id="36456" xmlns:xlink="http://www.w3.org/1999/xlink" width="48" height="48"><path d="M481.109333 33.92a114.133333 114.133333 0 0 1 61.781334 0l307.2 86.357333a114.133333 114.133333 0 0 1 83.242666 109.866667v331.328a293.333333 293.333333 0 0 1-91.221333 212.608l-8.384 7.936-16.512 15.424-16.149333 14.826667-15.786667 14.208-15.445333 13.610666-15.104 13.013334-14.762667 12.416a1153.898667 1153.898667 0 0 1-55.637333 43.562666l-13.098667 9.386667c-64.64 45.397333-117.12 68.138667-159.232 68.138667-42.112 0-94.592-22.741333-159.232-68.138667l-13.098667-9.386667a1153.898667 1153.898667 0 0 1-55.637333-43.562666l-14.762667-12.416-15.104-13.013334-15.445333-13.610666-15.786667-14.208-16.149333-14.826667-8.213333-7.637333-16.682667-15.722667a293.333333 293.333333 0 0 1-91.221333-212.608V230.144a114.133333 114.133333 0 0 1 83.242666-109.866667z m41.578667 71.872a39.466667 39.466667 0 0 0-21.376 0L194.133333 192.149333a39.466667 39.466667 0 0 0-28.778666 37.994667v331.328a218.666667 218.666667 0 0 0 68.010666 158.506667l7.722667 7.296 15.210667 14.208 14.848 13.653333 14.506666 13.056 14.144 12.501333 13.781334 11.946667 6.762666 5.738667 13.248 11.093333 12.885334 10.496 12.522666 9.941333c4.117333 3.2 8.149333 6.336 12.16 9.365334l11.733334 8.789333 5.76 4.202667 11.2 7.936 10.794666 7.381333c1.770667 1.194667 3.541333 2.346667 5.269334 3.477333l10.24 6.528c36.778667 22.890667 65.664 34.346667 85.866666 34.346667 20.202667 0 49.066667-11.456 85.866667-34.346667l10.24-6.528c1.728-1.130667 3.498667-2.282667 5.269333-3.477333l10.794667-7.381333c1.834667-1.28 3.690667-2.56 5.546667-3.904l11.392-8.234667 5.845333-4.330667 11.946667-9.088 6.122666-4.736 12.522667-9.941333 12.885333-10.517333 6.570667-5.461334 13.44-11.370666c2.261333-1.92 4.544-3.904 6.826667-5.888l13.994666-12.224 14.314667-12.778667 14.677333-13.354667 15.04-13.930666 15.36-14.485334a218.666667 218.666667 0 0 0 68.010667-158.485333V230.144a39.466667 39.466667 0 0 0-28.8-37.973333zM512 328.533333a76.8 76.8 0 0 1 35.050667 145.173334v139.114666a34.133333 34.133333 0 0 1-68.138667 3.114667l-0.149333-3.114667v-138.197333A76.8 76.8 0 0 1 512 328.533333z" fill="#000000" p-id="36457"></path></svg>