<?xml version="1.0" standalone="no"?><!DOCTYPE svg PUBLIC "-//W3C//DTD SVG 1.1//EN" "http://www.w3.org/Graphics/SVG/1.1/DTD/svg11.dtd"><svg t="1715003756874" class="icon" viewBox="0 0 1024 1024" version="1.1" xmlns="http://www.w3.org/2000/svg" p-id="41460" xmlns:xlink="http://www.w3.org/1999/xlink" width="48" height="48"><path d="M900.583644 150.827147l0 206.341508 51.588959 0 0-232.137011c0-56.423057-51.588959-51.574632-51.588959-51.574632L668.437423 73.457012l0 51.574632 206.351742 0C874.789165 125.031645 900.583644 125.839033 900.583644 150.827147z" fill="#5D5D5D" p-id="41461"></path><path d="M126.755404 150.828171c0-24.988114 25.793456-25.795503 25.793456-25.795503l206.353788 0 0-51.574632-232.147244 0c0 0-51.588959-4.847401-51.588959 51.574632l0 232.137011 51.588959 0L126.755404 150.828171z" fill="#5D5D5D" p-id="41462"></path><path d="M900.582621 873.070522 900.582621 873.070522c0.001023 25.001417-25.793456 25.806759-25.793456 25.806759L668.4364 898.877281l0 51.574632 232.146221 0c0 0 51.588959 4.810562 51.588959-51.574632L952.17158 666.714687l-51.588959 0L900.582621 873.070522z" fill="#5D5D5D" p-id="41463"></path><path d="M126.755404 873.070522 126.755404 666.714687 75.167468 666.714687l0 232.162594c0 56.388265 51.588959 51.572586 51.588959 51.572586l232.148267 0 0-51.572586L152.54886 898.877281C152.54886 898.877281 126.755404 898.068869 126.755404 873.070522z" fill="#5D5D5D" p-id="41464"></path><path d="M75.167468 486.152309l877.007181 0 0 51.587935-877.007181 0 0-51.587935Z" fill="#5D5D5D" p-id="41465"></path></svg>