<?xml version="1.0" standalone="no"?><!DOCTYPE svg PUBLIC "-//W3C//DTD SVG 1.1//EN" "http://www.w3.org/Graphics/SVG/1.1/DTD/svg11.dtd"><svg t="1715007676932" class="icon" viewBox="0 0 1024 1024" version="1.1" xmlns="http://www.w3.org/2000/svg" p-id="42482" xmlns:xlink="http://www.w3.org/1999/xlink" width="48" height="48"><path d="M836.4032 569.1392c14.813867 0 26.8288 12.014933 26.8288 26.8288v139.912533a145.408 145.408 0 0 1-145.237333 145.2032H281.770667A145.408 145.408 0 0 1 136.533333 735.914667V299.656533a145.408 145.408 0 0 1 145.237334-145.237333h137.8304a26.8288 26.8288 0 0 1 0 53.623467H281.770667A91.682133 91.682133 0 0 0 190.122667 299.6224v436.224a91.682133 91.682133 0 0 0 91.613866 91.613867h436.224a91.682133 91.682133 0 0 0 91.579734-91.579734V595.968c0-14.813867 12.014933-26.8288 26.8288-26.8288zM629.8624 219.5456a26.8288 26.8288 0 0 1 0-53.623467h174.1824c14.813867 0 26.8288 12.014933 26.8288 26.8288v159.3344a26.8288 26.8288 0 0 1-53.623467 0v-105.472L443.392 620.987733a26.692267 26.692267 0 0 1-37.853867 2.184534 26.794667 26.794667 0 0 1-2.1504-37.888l326.144-365.738667h-99.669333z" fill="#999999" p-id="42483"></path></svg>