<?xml version="1.0" standalone="no"?><!DOCTYPE svg PUBLIC "-//W3C//DTD SVG 1.1//EN" "http://www.w3.org/Graphics/SVG/1.1/DTD/svg11.dtd"><svg t="1715008543277" class="icon" viewBox="0 0 1024 1024" version="1.1" xmlns="http://www.w3.org/2000/svg" p-id="50566" xmlns:xlink="http://www.w3.org/1999/xlink" width="48" height="48"><path d="M307.2 384c-18.773333 0-34.133333 15.36-34.133333 34.133333v252.586667c0 18.773333 15.36 34.133333 34.133333 34.133333s34.133333-15.36 34.133333-34.133333V418.133333a34.133333 34.133333 0 0 0-34.133333-34.133333z" fill="#231815" p-id="50567"></path><path d="M966.997333 698.368v-0.512c0-0.682667-0.170667-1.365333-0.170666-2.048-0.170667-1.365333-0.170667-2.901333-0.512-4.266667-0.170667-1.024-0.512-2.048-0.853334-3.072-0.341333-1.024-0.512-2.218667-1.024-3.242666s-1.024-2.048-1.536-2.901334c-0.512-1.024-1.024-1.877333-1.536-2.901333-0.512-0.853333-1.194667-1.706667-1.877333-2.56-0.682667-0.853333-1.365333-1.877333-2.218667-2.56-0.853333-0.853333-1.706667-1.536-2.56-2.218667-0.853333-0.682667-1.536-1.365333-2.56-2.048-1.194667-0.853333-2.56-1.536-3.754666-2.218666-0.682667-0.341333-1.194667-0.682667-1.706667-1.024-48.298667-21.333333-79.530667-69.461333-79.530667-122.197334s31.232-100.864 79.530667-122.197333c0.682667-0.341333 1.194667-0.682667 1.706667-1.024 1.365333-0.682667 2.56-1.365333 3.754666-2.218667l2.56-2.048c0.853333-0.682667 1.706667-1.365333 2.56-2.218666 0.853333-0.853333 1.536-1.706667 2.218667-2.56 0.682667-0.853333 1.365333-1.706667 1.877333-2.56 0.682667-0.853333 1.024-1.877333 1.536-2.901334 0.512-1.024 1.024-1.877333 1.536-2.901333s0.682667-2.218667 1.024-3.242667c0.341333-1.024 0.682667-2.048 0.853334-3.072 0.341333-1.365333 0.341333-2.901333 0.512-4.266666 0-0.682667 0.170667-1.365333 0.170666-2.048V291.84c0-56.490667-45.909333-102.4-102.4-102.4H210.773333c-56.490667 0-102.4 45.909333-102.4 102.4v522.24c0 56.490667 45.909333 102.4 102.4 102.4h653.824c56.490667 0 102.4-45.909333 102.4-102.4v-115.712c0 0.170667 0 0 0 0z m-102.4 149.845333H210.773333c-18.773333 0-34.133333-15.36-34.133333-34.133333V291.84c0-18.773333 15.36-34.133333 34.133333-34.133333h653.824c18.773333 0 34.133333 15.36 34.133334 34.133333v78.506667a202.222933 202.222933 0 0 0-99.84 174.08c0 72.021333 38.570667 138.069333 99.84 174.08v95.573333c0 18.773333-15.36 34.133333-34.133334 34.133333z" fill="#231815" p-id="50568"></path></svg>