<?xml version="1.0" standalone="no"?><!DOCTYPE svg PUBLIC "-//W3C//DTD SVG 1.1//EN" "http://www.w3.org/Graphics/SVG/1.1/DTD/svg11.dtd"><svg t="1714963280877" class="icon" viewBox="0 0 1024 1024" version="1.1" xmlns="http://www.w3.org/2000/svg" p-id="16124" xmlns:xlink="http://www.w3.org/1999/xlink" width="200" height="200"><path d="M925.2 510c0.5-228.7-184.6-414.6-413.3-415-228.7-0.5-414.6 184.6-415 413.3-0.1 48.5 8.3 96.6 24.8 142.1-16.2 25-24.8 54.1-24.9 83.9 0 104.8 85 189.8 189.8 189.8 28.4-0.4 51.4-23.3 51.8-51.8V648.1c0-38.1-30.9-69-69-69h-17.3c-14.3 0.2-28.4 2.4-42.1 6.6-42.5-166.2 57.9-335.4 224.1-377.9s335.4 57.8 377.9 224c12.9 50.4 12.9 103.3 0 153.8-13.7-4.1-27.8-6.3-42.1-6.6h-17.3c-38.1 0-69 30.9-69 69v224.3c0.4 28.4 23.3 51.4 51.8 51.8 104.8 0 189.8-85 189.8-189.8 0-29.8-8.6-58.9-24.9-83.9 16.4-45 24.8-92.5 24.9-140.4z" fill="#8A8A8A" p-id="16125"></path></svg>