<?xml version="1.0" standalone="no"?><!DOCTYPE svg PUBLIC "-//W3C//DTD SVG 1.1//EN" "http://www.w3.org/Graphics/SVG/1.1/DTD/svg11.dtd"><svg t="1714810403657" class="icon" viewBox="0 0 1024 1024" version="1.1" xmlns="http://www.w3.org/2000/svg" p-id="4241" xmlns:xlink="http://www.w3.org/1999/xlink" width="200" height="200"><path d="M927.25551408 262.13793185H96.96293925c-27.37948445 0-49.56463408-21.73610667-49.56463407-48.54518518s22.19728592-48.54518518 49.56463407-48.54518519h830.29257483c27.37948445 0 49.56463408 21.73610667 49.56463407 48.54518519 0 26.82121482-22.19728592 48.54518518-49.56463407 48.54518518zM927.25551408 837.21633185H96.96293925c-27.37948445 0-49.56463408-21.73610667-49.56463407-48.54518518s22.19728592-48.54518518 49.56463407-48.54518519h830.29257483c27.37948445 0 49.56463408 21.73610667 49.56463407 48.54518519s-22.19728592 48.54518518-49.56463407 48.54518518zM927.25551408 550.29001482H96.96293925c-27.37948445 0-49.56463408-21.73610667-49.56463407-48.54518519s22.19728592-48.54518518 49.56463407-48.54518518h830.29257483c27.37948445 0 49.56463408 21.73610667 49.56463407 48.54518518s-22.19728592 48.54518518-49.56463407 48.54518519z" fill="#666666" p-id="4242"></path></svg>