<?xml version="1.0" standalone="no"?><!DOCTYPE svg PUBLIC "-//W3C//DTD SVG 1.1//EN" "http://www.w3.org/Graphics/SVG/1.1/DTD/svg11.dtd"><svg t="1714810657543" class="icon" viewBox="0 0 1024 1024" version="1.1" xmlns="http://www.w3.org/2000/svg" p-id="7508" xmlns:xlink="http://www.w3.org/1999/xlink" width="200" height="200"><path d="M186.57 372.67H129V170.53a50.1 50.1 0 0 1 50-50h202.14v57.6H186.57zM895 372.67h-57.6V178.09H642.86v-57.6H845a50.1 50.1 0 0 1 50 50zM844.81 886.56H642.68V829h194.57V634.39h57.6v202.13a50.1 50.1 0 0 1-50.04 50.04zM381.14 886.38H179a50.1 50.1 0 0 1-50-50V634.21h57.6v194.57h194.54zM222.56 475.63h578.87v57.6H222.56z" p-id="7509"></path></svg>