<?xml version="1.0" standalone="no"?><!DOCTYPE svg PUBLIC "-//W3C//DTD SVG 1.1//EN" "http://www.w3.org/Graphics/SVG/1.1/DTD/svg11.dtd"><svg t="1714810586355" class="icon" viewBox="0 0 1024 1024" version="1.1" xmlns="http://www.w3.org/2000/svg" p-id="6065" xmlns:xlink="http://www.w3.org/1999/xlink" width="200" height="200"><path d="M705.046 748.841c71.71-60.801 117.226-151.546 117.226-252.927 0-183.054-148.397-331.455-331.451-331.455s-331.451 148.4-331.451 331.455c0 183.060 148.397 331.455 331.451 331.455 63.311 0 122.468-17.753 172.781-48.548l114.524 119.408c4.731 5.091 12.982 5.631 18.421 1.201l19.708-16.048c5.44-4.428 6.014-12.147 1.282-17.242l-112.492-117.296zM210.361 495.911c0-154.892 125.566-280.457 280.46-280.457s280.46 125.566 280.46 280.457c0 154.895-125.566 280.463-280.46 280.463s-280.46-125.57-280.46-280.463z" fill="#666666" p-id="6066"></path></svg>